<svg xmlns="http://www.w3.org/2000/svg" xmlns:xlink="http://www.w3.org/1999/xlink" viewBox="0 0 512 512" width="512" height="512">
  <defs>
    <clipPath id="circle-clip">
      <circle cx="256" cy="256" r="256"/>
    </clipPath>
  </defs>
  <g clip-path="url(#circle-clip)">
<path fill="#FEFFFF" opacity="1.000000" stroke="none" 
	d="
M229.000000,1.000002 
	C247.354233,1.000000 265.708466,1.000000 284.615356,1.386562 
	C285.829865,2.174012 286.446930,2.801087 287.160187,2.942225 
	C300.118561,5.506506 313.234833,7.431313 326.025330,10.652356 
	C352.122192,17.224348 375.998352,28.963318 398.435944,43.695641 
	C415.272766,54.750580 430.278656,67.959915 444.096436,82.574600 
	C455.619232,94.761894 466.249939,107.694664 474.462799,122.319107 
	C481.967041,135.681778 489.580902,149.141113 495.322357,163.297668 
	C503.533813,183.544373 508.781372,204.779419 511.091461,226.630539 
	C511.181061,227.478149 512.339539,228.212753 513.000000,229.000000 
	C513.000000,247.354233 513.000000,265.708466 512.613525,284.615387 
	C511.754608,287.490570 511.330536,289.824097 510.801636,292.133636 
	C507.636230,305.955780 504.919983,319.902771 501.158600,333.561554 
	C494.927338,356.189056 484.277924,376.939178 471.708405,396.608856 
	C459.906342,415.077576 445.497864,431.499481 429.227142,446.205688 
	C422.623047,452.174713 416.075043,458.349030 408.777740,463.380188 
	C389.014404,477.006226 368.336029,489.064514 345.586456,497.201691 
	C326.996552,503.851013 307.893188,508.301270 288.364471,511.065063 
	C287.175507,511.233337 286.118439,512.333496 285.000000,513.000000 
	C266.645782,513.000000 248.291550,513.000000 229.386826,512.615845 
	C228.009018,511.824402 227.222366,511.218628 226.348282,511.039490 
	C212.908783,508.285034 199.364716,505.974182 186.033844,502.773529 
	C170.214111,498.975250 155.173416,492.793518 140.984985,484.879425 
	C128.552628,477.944824 115.619171,471.394958 104.602165,462.561157 
	C89.446899,450.409119 74.566772,437.391205 62.019093,422.657501 
	C49.568996,408.038330 39.623451,391.154755 29.626652,374.630798 
	C24.290672,365.810822 20.926727,355.747803 17.095194,346.078400 
	C9.861734,327.823700 5.892914,308.717987 2.936069,289.369751 
	C2.753598,288.175751 1.666307,287.120056 1.000000,286.000000 
	C1.000000,266.979095 1.000000,247.958206 1.383541,228.386810 
	C2.511374,224.723007 3.502235,221.645447 3.959556,218.490570 
	C6.727102,199.398270 11.733820,180.843231 18.720108,162.948853 
	C25.818544,144.767212 34.874084,127.407082 46.385117,111.597389 
	C54.636158,100.265091 63.171516,88.926208 73.015663,79.016380 
	C88.667976,63.259647 105.422775,48.534939 125.225548,37.939835 
	C137.742767,31.242733 150.064178,23.907440 163.206848,18.714615 
	C183.543762,10.679253 204.783783,5.373521 226.629547,2.909560 
	C227.480667,2.813564 228.212555,1.660511 229.000000,1.000002 
M149.077347,342.074707 
	C149.077347,342.074707 149.093338,342.166534 149.633453,342.018250 
	C149.812653,341.704468 149.991837,341.390656 150.695236,340.795349 
	C150.818237,340.219452 150.941223,339.643555 151.060516,339.034241 
	C151.060516,339.034241 151.044632,339.055756 151.557449,338.928802 
	C151.724701,338.635590 151.891953,338.342407 151.989685,338.025269 
	C151.989685,338.025269 152.046799,338.072449 152.601486,337.932770 
	C152.841614,337.653534 153.081741,337.374298 153.894150,336.782166 
	C155.538406,334.188965 157.182663,331.595795 159.020889,328.572998 
	C159.020889,328.572998 159.061172,328.103363 159.546234,327.931335 
	C159.723511,327.655548 159.900803,327.379730 160.665451,326.747833 
	C161.475250,324.863342 162.285049,322.978821 163.599243,320.936432 
	C163.742599,320.633881 163.885971,320.331299 164.562775,319.636230 
	C164.740662,318.781616 164.918533,317.927032 165.042725,317.003174 
	C165.042725,317.003174 165.049042,317.090576 165.578613,316.952698 
	C165.722443,316.642395 165.866272,316.332123 166.544067,315.561768 
	C168.780960,308.813690 171.673737,302.199371 173.084381,295.282776 
	C174.749023,287.120697 175.453064,278.717377 175.976852,270.381134 
	C176.469330,262.543518 176.474823,254.644897 176.144745,246.796234 
	C175.907440,241.153351 174.766006,235.548492 173.995651,229.449493 
	C173.995651,229.449493 173.827789,229.001633 174.069595,228.134491 
	C173.482635,219.445206 172.895691,210.755936 172.932968,202.266769 
	C174.917328,203.209595 176.901703,204.152420 179.259842,205.650055 
	C181.835892,207.457458 184.411957,209.264862 187.116074,211.574615 
	C187.411713,211.725433 187.707352,211.876236 188.241028,212.534698 
	C188.419250,212.590988 188.597473,212.647263 188.966629,213.237564 
	C189.672485,213.840118 190.378342,214.442688 191.162476,215.510788 
	C191.333572,215.823715 191.596939,215.966156 191.967468,216.019699 
	C191.967468,216.019699 192.049789,216.030136 192.278107,216.653687 
	C195.886337,221.093201 199.494568,225.532700 203.239853,230.643906 
	C205.486969,234.101715 207.734085,237.559509 210.089096,241.715775 
	C212.692535,246.552704 215.295975,251.389648 217.934509,256.933197 
	C219.498383,260.016266 221.062271,263.099304 222.766937,266.910492 
	C224.926376,271.607269 227.085800,276.304016 229.299026,281.698730 
	C231.124420,285.509583 232.949799,289.320435 234.904037,293.857178 
	C236.626358,297.491547 238.348694,301.125885 240.010956,304.929535 
	C240.010956,304.929535 240.184250,304.976868 240.209335,305.647430 
	C240.761063,306.615570 241.312790,307.583740 241.788376,308.838409 
	C241.788376,308.838409 242.033707,309.004852 242.015533,309.601349 
	C242.326691,310.077881 242.637848,310.554443 242.956406,311.733582 
	C243.936966,313.542694 244.917526,315.351807 245.884308,317.803375 
	C246.489517,318.896545 247.094727,319.989716 247.860260,321.792206 
	C249.827972,325.249664 251.795685,328.707123 253.925262,332.803314 
	C254.877457,334.234467 255.829651,335.665619 256.878571,337.662292 
	C257.160126,337.883392 257.441650,338.104523 257.697266,338.381317 
	C257.697266,338.381317 257.682739,338.441010 257.761536,339.121826 
	C259.840485,342.043854 261.919434,344.965851 264.106384,348.406189 
	C264.383728,348.597473 264.661041,348.788727 264.950012,349.036041 
	C264.950012,349.036041 264.999725,349.064484 265.155487,349.716156 
	C267.068451,351.885010 268.981415,354.053864 271.119415,356.821747 
	C272.710693,358.221069 274.301971,359.620392 275.927612,361.068359 
	C275.927612,361.068359 275.983521,361.088867 276.063293,361.578674 
	C276.257080,361.904297 276.540741,362.035370 276.948029,362.072510 
	C276.948029,362.072510 277.054016,362.066223 277.256073,362.575867 
	C277.719482,362.842163 278.182892,363.108459 278.713989,363.408203 
	C278.713989,363.408203 278.719879,363.483459 278.897369,363.889160 
	C279.120758,364.122192 279.392609,364.217896 280.079956,364.756653 
	C283.427124,366.893677 286.774261,369.030670 290.422302,371.742279 
	C292.284821,372.447571 294.147369,373.152863 296.660065,374.197815 
	C302.938385,376.354034 309.147278,378.745392 315.507874,380.622833 
	C335.364075,386.483734 355.411102,391.090942 376.360840,388.018372 
	C388.710327,386.207123 399.902679,381.811066 409.732330,372.847382 
	C417.984344,365.493835 424.156067,356.696533 428.596405,346.081268 
	C428.669678,345.731873 428.742981,345.382507 429.106476,344.488831 
	C429.097778,344.080963 429.089111,343.673096 429.563965,343.006531 
	C429.658752,342.678284 429.753540,342.350067 430.071198,341.631104 
	C430.071198,341.631104 430.067108,341.181335 430.683319,340.800171 
	C432.755829,334.210236 434.828369,327.620300 437.264740,320.328491 
	C437.532043,318.264557 437.799347,316.200592 438.736694,313.759430 
	C439.554596,308.530914 440.372498,303.302368 441.819153,297.776703 
	C441.892548,296.875183 441.965942,295.973633 442.721252,294.642944 
	C442.760437,292.777649 442.799622,290.912384 443.000946,288.392883 
	C443.025452,287.944397 443.049927,287.495941 443.750397,286.651611 
	C444.111511,282.752380 444.472595,278.853149 445.021149,274.192261 
	C445.641907,270.450287 446.262665,266.708282 447.153320,262.120422 
	C447.815796,256.510010 448.543518,250.906281 449.117828,245.286865 
	C449.500275,241.544327 449.663788,237.779404 449.999695,233.210922 
	C450.018890,231.851379 450.038055,230.491852 450.751984,228.740417 
	C451.432190,223.473038 452.112366,218.205643 453.044098,212.067154 
	C453.747314,206.120865 454.450531,200.174591 455.163971,194.142929 
	C455.163971,194.142929 455.105927,194.079483 455.593842,193.517059 
	C455.694183,192.024902 455.794495,190.532745 456.210876,188.402405 
	C456.401855,187.245468 456.592834,186.088531 457.034637,184.158371 
	C457.148315,182.810425 457.261993,181.462479 457.721710,179.666046 
	C457.724182,179.108780 457.726654,178.551498 457.985382,177.322083 
	C457.995514,176.847809 458.005646,176.373535 458.449524,175.294876 
	C462.548645,157.343063 466.647736,139.391251 471.035522,120.175110 
	C455.766083,127.489555 440.803589,134.656952 425.193024,141.915192 
	C424.124359,142.603821 423.055695,143.292435 421.293030,144.041443 
	C419.199585,145.365585 417.106110,146.689728 414.447205,148.050125 
	C414.217773,148.335648 413.988342,148.621155 413.227814,148.939697 
	C412.839539,149.262009 412.451263,149.584335 411.510040,149.967560 
	C411.108765,150.333221 410.707458,150.698868 409.710449,151.096710 
	C409.454895,151.377655 409.199371,151.658600 408.417969,152.018616 
	C408.027557,152.363403 407.637146,152.708191 407.061157,152.978287 
	C407.061157,152.978287 406.987732,153.164322 406.512634,153.173294 
	C406.208069,153.342499 406.045105,153.601013 405.961517,153.951843 
	C405.961517,153.951843 405.945404,154.012009 405.377686,154.099823 
	C405.116272,154.362564 404.854858,154.625290 404.240753,154.832321 
	C404.240753,154.832321 404.001709,155.097443 403.388367,155.138428 
	C402.839783,155.728378 402.291168,156.318329 401.147797,156.913773 
	C400.756378,157.275177 400.364960,157.636581 399.378204,158.307495 
	C394.675140,162.394623 389.972076,166.481750 384.675781,170.811615 
	C380.764160,175.185928 376.852539,179.560242 372.335785,184.233643 
	C369.155151,189.071182 365.974518,193.908737 362.817139,198.771683 
	C362.817139,198.771683 362.808655,198.803360 362.203400,199.144455 
	C360.644836,202.428772 359.086304,205.713089 357.069305,209.611420 
	C355.012451,216.419922 352.955627,223.228439 350.711914,230.235443 
	C350.711914,230.235443 350.827820,230.482193 350.308228,231.084961 
	C350.199432,232.381210 350.090637,233.677475 349.517181,235.598007 
	C349.273987,238.240936 349.030762,240.883850 348.298248,244.282318 
	C348.238403,252.853027 348.178528,261.423737 347.933502,270.903198 
	C349.024933,282.243805 350.116364,293.584412 351.074768,305.804749 
	C351.320862,310.653656 351.566956,315.502533 351.190125,320.112152 
	C349.799347,319.379578 348.408569,318.647034 346.896057,317.436157 
	C346.700073,317.105408 346.415497,316.986450 346.016937,316.976776 
	C346.016937,316.976776 345.912598,316.993347 345.614594,316.468689 
	C344.777771,315.941193 343.940918,315.413696 342.989471,314.961365 
	C342.989471,314.961365 343.093689,314.870026 342.919128,314.307129 
	C342.276764,313.937225 341.634399,313.567352 340.549194,312.972931 
	C340.549194,312.972931 340.067200,312.853851 339.765808,312.216309 
	C337.872681,310.114532 335.979553,308.012726 333.985046,305.394531 
	C333.711670,305.203491 333.438263,305.012451 333.111145,304.990021 
	C333.111145,304.990021 333.207458,304.841583 333.097290,304.366730 
	C333.097290,304.366730 332.689423,304.099854 332.526306,303.553223 
	C331.996338,303.028778 331.466370,302.504333 330.795441,301.352386 
	C329.813354,300.232483 328.831238,299.112579 327.807678,297.315826 
	C325.597870,294.109467 323.388062,290.903107 321.118378,287.060333 
	C320.428192,286.018066 319.737976,284.975830 318.967072,283.241974 
	C317.571960,280.849701 316.176849,278.457458 314.722778,275.391907 
	C313.520782,273.527283 312.318817,271.662689 311.152832,269.167267 
	C310.770569,268.442535 310.388275,267.717773 310.064697,266.264160 
	C308.728394,263.806396 307.392090,261.348633 306.012177,258.403961 
	C306.012177,258.403961 305.787384,257.969818 305.864441,257.497467 
	C305.864441,257.497467 305.588562,257.106384 305.546722,256.450500 
	C304.727448,254.933426 303.908173,253.416336 303.041046,251.976486 
	C303.041046,251.976486 303.130096,251.958466 303.151886,251.306015 
	C302.758148,250.571060 302.364380,249.836090 302.005066,249.029419 
	C302.005066,249.029419 301.932678,248.996460 301.925964,248.366394 
	C301.650757,248.064011 301.375580,247.761642 301.205536,247.177567 
	C301.205536,247.177567 300.970306,246.990280 300.992462,246.388718 
	C300.682098,245.905853 300.371735,245.422989 300.029327,245.000549 
	C300.029327,245.000549 300.073456,244.940430 300.047150,244.202652 
	C298.005371,239.853119 295.963593,235.503571 293.863037,230.418045 
	C291.907104,226.286453 289.951172,222.154861 287.979218,217.293915 
	C285.715881,212.843323 283.452515,208.392731 280.982880,203.252365 
	C278.703247,199.168991 276.423645,195.085617 274.015930,190.298660 
	C271.685852,186.856186 269.355774,183.413696 266.875366,179.306564 
	C264.578979,176.516525 262.282623,173.726486 259.875366,170.461731 
	C259.694519,170.152863 259.425262,169.991028 259.045624,169.948349 
	C259.045624,169.948349 259.024506,169.919846 258.847443,169.277466 
	C254.250153,165.497925 249.652863,161.718384 244.688629,157.355103 
	C242.793762,156.560745 240.898911,155.766388 238.699493,154.388214 
	C237.139420,153.616577 235.579361,152.844940 233.573669,151.514786 
	C230.792206,150.412704 228.037521,149.236542 225.225082,148.220200 
	C201.288071,139.569977 176.965485,132.633713 151.143127,135.085022 
	C127.291443,137.349243 109.823250,149.387283 98.784302,171.455521 
	C98.519203,171.974442 98.254112,172.493347 97.385338,173.301758 
	C97.217323,174.171768 97.049316,175.041794 96.365173,176.226715 
	C96.160240,176.788147 95.955307,177.349579 95.194649,178.321030 
	C94.435188,180.529739 93.675720,182.738449 92.370018,185.329056 
	C92.211906,186.196548 92.053787,187.064026 91.941360,188.009796 
	C91.941360,188.009796 91.929878,187.919983 91.371323,188.317093 
	C91.218117,189.202774 91.064903,190.088440 90.384857,191.468170 
	C89.330383,195.331589 88.275909,199.195007 86.893517,203.769592 
	C85.809402,208.939987 84.725296,214.110367 83.224823,219.990341 
	C81.155457,233.016205 78.810867,246.005844 77.090553,259.077637 
	C75.194809,273.482422 73.888542,287.964386 72.294273,302.409302 
	C71.313141,311.298950 70.273590,320.182098 69.011528,329.833374 
	C68.425392,333.866241 67.839249,337.899139 66.981529,342.703705 
	C66.635628,345.134979 66.289726,347.566223 65.628487,350.491180 
	C65.624039,350.871063 65.619591,351.250946 65.636703,351.676605 
	C65.636703,351.676605 65.640045,351.727112 65.256454,352.033478 
	C65.116211,352.354340 65.113686,352.676331 64.986977,353.658905 
	C64.944542,354.361328 64.902115,355.063721 64.378387,356.386353 
	C63.551575,360.911438 62.724766,365.436554 61.414513,370.516541 
	C58.705013,380.555786 55.995518,390.595032 53.098785,401.328033 
	C55.111309,400.857574 56.881462,400.684509 58.455601,400.035828 
	C67.044243,396.496582 75.882103,393.404846 84.071030,389.090271 
	C95.968697,382.821686 107.386284,375.641876 119.575020,368.978149 
	C119.814293,368.690948 120.053566,368.403778 120.961060,367.994843 
	C124.138123,365.508698 127.315193,363.022552 131.000366,360.284821 
	C131.374619,359.876648 131.748871,359.468445 132.587021,358.996155 
	C132.915497,358.860199 133.081223,358.614471 133.580734,358.081024 
	C133.684326,357.938995 133.787933,357.796936 134.485901,357.406036 
	C137.360626,354.309235 140.235336,351.212402 143.056595,348.075623 
	C143.056595,348.075623 143.053223,348.142059 143.586395,347.978271 
	C143.780121,347.672699 143.973846,347.367126 144.763489,346.844635 
	C145.914871,345.632141 147.066254,344.419678 148.111649,343.101288 
	C148.111649,343.101288 148.154236,343.244965 148.690948,343.076324 
	C148.850250,342.748322 149.009552,342.420349 149.077347,342.074707 
z"/>
<path fill="#F7F7F7" opacity="1.000000" stroke="none" 
	d="
M513.000000,228.531342 
	C512.339539,228.212753 511.181061,227.478149 511.091461,226.630539 
	C508.781372,204.779419 503.533813,183.544373 495.322357,163.297668 
	C489.580902,149.141113 481.967041,135.681778 474.462799,122.319107 
	C466.249939,107.694664 455.619232,94.761894 444.096436,82.574600 
	C430.278656,67.959915 415.272766,54.750580 398.435944,43.695641 
	C375.998352,28.963318 352.122192,17.224348 326.025330,10.652356 
	C313.234833,7.431313 300.118561,5.506506 287.160187,2.942225 
	C286.446930,2.801087 285.829865,2.174012 285.084015,1.386562 
	C360.927032,1.000000 436.854095,1.000000 513.000000,1.000000 
	C513.000000,76.687424 513.000000,152.375046 513.000000,228.531342 
z"/>
<path fill="#F7F7F7" opacity="1.000000" stroke="none" 
	d="
M285.468658,513.000000 
	C286.118439,512.333496 287.175507,511.233337 288.364471,511.065063 
	C307.893188,508.301270 326.996552,503.851013 345.586456,497.201691 
	C368.336029,489.064514 389.014404,477.006226 408.777740,463.380188 
	C416.075043,458.349030 422.623047,452.174713 429.227142,446.205688 
	C445.497864,431.499481 459.906342,415.077576 471.708405,396.608856 
	C484.277924,376.939178 494.927338,356.189056 501.158600,333.561554 
	C504.919983,319.902771 507.636230,305.955780 510.801636,292.133636 
	C511.330536,289.824097 511.754608,287.490570 512.613525,285.084045 
	C513.000000,360.927032 513.000000,436.854095 513.000000,513.000000 
	C437.312592,513.000000 361.624939,513.000000 285.468658,513.000000 
z"/>
<path fill="#F7F7F7" opacity="1.000000" stroke="none" 
	d="
M228.531342,1.000002 
	C228.212555,1.660511 227.480667,2.813564 226.629547,2.909560 
	C204.783783,5.373521 183.543762,10.679253 163.206848,18.714615 
	C150.064178,23.907440 137.742767,31.242733 125.225548,37.939835 
	C105.422775,48.534939 88.667976,63.259647 73.015663,79.016380 
	C63.171516,88.926208 54.636158,100.265091 46.385117,111.597389 
	C34.874084,127.407082 25.818544,144.767212 18.720108,162.948853 
	C11.733820,180.843231 6.727102,199.398270 3.959556,218.490570 
	C3.502235,221.645447 2.511374,224.723007 1.383541,227.918152 
	C1.000000,152.406128 1.000000,76.812263 1.000000,1.000000 
	C76.687424,1.000000 152.375046,1.000000 228.531342,1.000002 
z"/>
<path fill="#F7F7F7" opacity="1.000000" stroke="none" 
	d="
M1.000000,286.468658 
	C1.666307,287.120056 2.753598,288.175751 2.936069,289.369751 
	C5.892914,308.717987 9.861734,327.823700 17.095194,346.078400 
	C20.926727,355.747803 24.290672,365.810822 29.626652,374.630798 
	C39.623451,391.154755 49.568996,408.038330 62.019093,422.657501 
	C74.566772,437.391205 89.446899,450.409119 104.602165,462.561157 
	C115.619171,471.394958 128.552628,477.944824 140.984985,484.879425 
	C155.173416,492.793518 170.214111,498.975250 186.033844,502.773529 
	C199.364716,505.974182 212.908783,508.285034 226.348282,511.039490 
	C227.222366,511.218628 228.009018,511.824402 228.918167,512.615845 
	C153.073120,513.000000 77.146255,513.000000 1.000000,513.000000 
	C1.000000,437.645905 1.000000,362.291626 1.000000,286.468658 
z"/>
<path fill="#02CAFD" opacity="1.000000" stroke="none" 
	d="
M96.881302,175.911804 
	C97.049316,175.041794 97.217323,174.171768 97.864166,173.382065 
	C98.635323,172.660049 98.927650,171.857712 99.219971,171.055389 
	C109.823250,149.387283 127.291443,137.349243 151.143127,135.085022 
	C176.965485,132.633713 201.288071,139.569977 225.225082,148.220200 
	C228.037521,149.236542 230.792206,150.412704 233.411362,151.958466 
	C231.127426,152.552353 229.006042,152.706192 226.884125,152.852066 
	C221.849167,153.198166 216.813950,153.540497 211.428070,153.872345 
	C210.378281,153.950195 209.679260,154.040100 208.623169,154.083298 
	C207.165497,154.343628 206.064941,154.650635 204.965729,154.969025 
	C204.967072,154.980392 204.984482,154.972397 204.628891,154.938660 
	C203.399338,155.218506 202.525375,155.532074 201.485901,155.819977 
	C201.320374,155.794342 201.017487,155.937393 200.637314,155.933380 
	C198.415680,156.580093 196.574219,157.230820 194.383575,157.891235 
	C192.100555,158.630386 190.166702,159.359818 187.976044,160.141174 
	C187.485565,160.440414 187.251907,160.687744 186.864258,161.023987 
	C186.710297,161.112885 186.354843,161.122757 186.067108,161.172028 
	C185.537460,161.509308 185.295563,161.797318 185.033966,162.044662 
	C185.014267,162.003983 185.085190,162.060028 184.847382,162.145889 
	C184.416473,162.499451 184.223404,162.767166 184.014862,163.017761 
	C183.999390,163.000656 184.032944,163.030640 183.808792,163.119385 
	C183.302444,163.391022 183.113571,163.643677 182.870911,164.267731 
	C180.482910,167.384552 178.242065,170.199722 175.632523,173.079285 
	C174.841858,174.750198 174.419907,176.356735 174.004486,177.981628 
	C174.011032,178.000000 173.972275,178.004395 173.646027,178.049896 
	C173.243408,179.076462 173.167007,180.057526 173.094574,181.374847 
	C173.025497,182.152710 172.952469,182.594330 172.639343,183.249313 
	C172.315247,184.094696 172.231262,184.726730 172.193695,185.627762 
	C172.186935,186.255173 172.133759,186.613571 171.779007,187.222961 
	C170.977081,192.648697 170.476730,197.823441 169.680359,203.038452 
	C169.070831,203.486710 168.757309,203.894699 168.443802,204.302704 
	C168.959167,204.535004 169.474548,204.767303 169.993134,205.399536 
	C169.998581,206.866043 170.000824,207.932602 169.847504,209.354156 
	C169.271912,213.934937 167.712845,216.414169 162.693741,216.377701 
	C157.303833,216.338562 151.904587,217.400986 146.511734,218.003296 
	C141.128448,218.604553 135.729401,219.105225 130.373627,219.896225 
	C127.370422,220.339783 124.447487,221.311020 121.476227,221.991409 
	C118.920837,222.576553 116.370560,223.258331 113.778748,223.595306 
	C107.460449,224.416779 101.121475,225.586349 94.786804,225.611694 
	C89.854691,225.631454 87.324478,226.898727 85.861748,231.671387 
	C85.347679,233.348694 83.339920,234.568207 82.011307,235.591156 
	C82.679390,231.123199 83.350372,227.060867 84.410965,222.908813 
	C85.200706,221.156036 85.624542,219.498260 85.995262,217.828674 
	C86.518875,215.470505 87.247391,213.123077 87.437675,210.735153 
	C87.639854,208.198105 87.315735,205.619110 87.221436,203.058441 
	C88.275909,199.195007 89.330383,195.331589 90.934021,191.028748 
	C91.632080,189.699554 91.780975,188.809769 91.929878,187.919983 
	C91.929878,187.919983 91.941360,188.009796 92.257843,187.951965 
	C92.688301,186.911804 92.802277,185.929474 92.916252,184.947159 
	C93.675720,182.738449 94.435188,180.529739 95.793030,178.117126 
	C96.554710,177.246078 96.718002,176.578949 96.881302,175.911804 
M91.482307,192.588989 
	C91.482307,192.588989 91.414894,192.476654 91.482307,192.588989 
z"/>
<path fill="#02C3FA" opacity="1.000000" stroke="none" 
	d="
M82.014191,235.996750 
	C83.339920,234.568207 85.347679,233.348694 85.861748,231.671387 
	C87.324478,226.898727 89.854691,225.631454 94.786804,225.611694 
	C101.121475,225.586349 107.460449,224.416779 113.778748,223.595306 
	C116.370560,223.258331 118.920837,222.576553 121.476227,221.991409 
	C124.447487,221.311020 127.370422,220.339783 130.373627,219.896225 
	C135.729401,219.105225 141.128448,218.604553 146.511734,218.003296 
	C151.904587,217.400986 157.303833,216.338562 162.693741,216.377701 
	C167.712845,216.414169 169.271912,213.934937 170.192993,209.550079 
	C171.129181,214.301147 171.449173,219.225723 172.062805,224.113464 
	C172.273315,225.790283 173.218338,227.374893 173.827789,229.001633 
	C173.827789,229.001633 173.995651,229.449493 174.001831,230.161789 
	C173.739853,239.982590 172.820969,249.131699 173.386322,258.188171 
	C173.952927,267.264862 171.732590,274.887024 166.007309,281.770050 
	C162.274460,278.668274 158.016357,278.439850 152.341782,279.686432 
	C143.057114,281.726105 133.694809,283.474670 124.302719,284.947296 
	C112.602692,286.781738 100.863144,288.433716 89.090843,289.702026 
	C84.652130,290.180206 80.491035,290.078918 78.838776,295.312836 
	C78.731232,295.653534 77.425209,295.615906 75.358276,295.997894 
	C76.448151,284.231049 77.340462,273.094727 78.552422,261.993347 
	C79.500900,253.305389 80.845558,244.660675 82.014191,235.996750 
z"/>
<path fill="#03BEF7" opacity="1.000000" stroke="none" 
	d="
M82.011299,235.591156 
	C80.845558,244.660675 79.500900,253.305389 78.552422,261.993347 
	C77.340462,273.094727 76.448151,284.231049 75.358276,295.997894 
	C77.425209,295.615906 78.731232,295.653534 78.838776,295.312836 
	C80.491035,290.078918 84.652130,290.180206 89.090843,289.702026 
	C100.863144,288.433716 112.602692,286.781738 124.302719,284.947296 
	C133.694809,283.474670 143.057114,281.726105 152.341782,279.686432 
	C158.016357,278.439850 162.274460,278.668274 166.007309,281.770050 
	C171.732590,274.887024 173.952927,267.264862 173.386322,258.188171 
	C172.820969,249.131699 173.739853,239.982590 174.017944,230.400391 
	C174.766006,235.548492 175.907440,241.153351 176.144745,246.796234 
	C176.474823,254.644897 176.469330,262.543518 175.976852,270.381134 
	C175.453064,278.717377 174.749023,287.120697 173.084381,295.282776 
	C171.673737,302.199371 168.780960,308.813690 166.050720,315.901581 
	C165.387939,316.524445 165.218491,316.807526 165.049042,317.090576 
	C165.049042,317.090576 165.042725,317.003174 164.796982,317.019379 
	C164.369263,317.034027 164.187286,317.032501 163.556702,317.018311 
	C145.956909,319.548187 128.801727,322.064087 111.655807,324.641449 
	C97.770615,326.728668 83.896545,328.889893 69.998276,330.745514 
	C69.739426,330.004547 69.499847,329.536377 69.260269,329.068176 
	C70.273590,320.182098 71.313141,311.298950 72.294273,302.409302 
	C73.888542,287.964386 75.194809,273.482422 77.090553,259.077637 
	C78.810867,246.005844 81.155457,233.016205 83.537949,220.098907 
	C83.907837,221.137817 83.964600,222.068176 84.021362,222.998520 
	C83.350372,227.060867 82.679390,231.123199 82.011299,235.591156 
z"/>
<path fill="#02BEF8" opacity="1.000000" stroke="none" 
	d="
M430.067108,341.181335 
	C430.067108,341.181335 430.071198,341.631104 429.754822,341.978333 
	C429.319092,342.638794 429.199738,342.952026 429.080414,343.265228 
	C429.089111,343.673096 429.097778,344.080963 428.759094,344.928741 
	C428.312225,345.699890 428.212799,346.031158 428.113373,346.362396 
	C424.156067,356.696533 417.984344,365.493835 409.013550,372.935669 
	C405.408936,371.993073 400.796936,371.727448 399.940979,369.796692 
	C396.533813,362.111298 390.425507,365.017090 385.414978,365.599091 
	C381.684143,366.032501 378.483276,367.828430 376.300598,363.155121 
	C375.973541,362.454865 373.892365,361.751892 373.305573,362.124817 
	C368.557404,365.142242 365.175018,362.190887 361.554413,359.846741 
	C360.766083,359.336334 359.679932,359.045807 358.735504,359.056519 
	C353.610504,359.114471 348.297546,355.713593 343.345947,359.888062 
	C342.873779,360.286102 341.737915,359.896912 341.048218,359.571655 
	C344.048676,355.158539 346.911102,351.047028 350.087677,346.774048 
	C350.569092,345.714172 350.736420,344.815674 350.884033,343.902405 
	C350.864349,343.887634 350.837646,343.846100 351.158386,343.669495 
	C352.718506,333.452942 353.957916,323.412994 355.218903,313.198303 
	C366.447784,316.640717 377.802216,320.137146 389.166504,323.601135 
	C399.555450,326.767792 410.060364,329.600067 420.296478,333.198822 
	C424.201294,334.571686 430.082214,334.582703 430.067108,341.181335 
z"/>
<path fill="#06C5F9" opacity="1.000000" stroke="none" 
	d="
M340.910187,359.873199 
	C341.737915,359.896912 342.873779,360.286102 343.345947,359.888062 
	C348.297546,355.713593 353.610504,359.114471 358.735504,359.056519 
	C359.679932,359.045807 360.766083,359.336334 361.554413,359.846741 
	C365.175018,362.190887 368.557404,365.142242 373.305573,362.124817 
	C373.892365,361.751892 375.973541,362.454865 376.300598,363.155121 
	C378.483276,367.828430 381.684143,366.032501 385.414978,365.599091 
	C390.425507,365.017090 396.533813,362.111298 399.940979,369.796692 
	C400.796936,371.727448 405.408936,371.993073 408.698364,373.048828 
	C399.902679,381.811066 388.710327,386.207123 376.360840,388.018372 
	C355.411102,391.090942 335.364075,386.483734 315.507874,380.622833 
	C309.147278,378.745392 302.938385,376.354034 296.394867,373.703369 
	C297.398499,372.529388 298.667297,371.849884 300.291687,371.093079 
	C301.116852,370.901001 301.586487,370.786285 302.441895,370.734558 
	C304.130371,370.824951 305.433075,370.852356 307.114380,370.920013 
	C308.633698,370.706635 309.774445,370.452972 311.302917,370.104309 
	C312.752380,369.986755 313.814087,369.964264 315.241760,369.965179 
	C316.716888,369.717865 317.826050,369.447174 319.257263,369.066864 
	C320.029694,368.914490 320.480042,368.871674 321.079895,369.078308 
	C321.817352,368.939758 322.405334,368.551758 323.240906,368.079041 
	C323.662689,368.004822 323.836823,368.015320 324.108490,368.190186 
	C324.449066,368.192108 324.692139,368.029633 324.967499,367.904480 
	C324.999817,367.941803 324.904877,367.914612 325.201630,367.929779 
	C325.985901,367.668427 326.473419,367.391907 327.167114,367.016602 
	C327.373230,366.917816 327.830414,366.917572 328.145264,366.930481 
	C328.969116,366.639709 329.478149,366.336060 330.232239,365.845520 
	C331.245697,365.405182 332.014069,365.151733 333.110199,364.913422 
	C333.945404,364.589905 334.452820,364.251282 334.976593,363.949921 
	C334.992950,363.987213 334.922882,363.945679 335.136688,363.888123 
	C335.627899,363.695984 335.826721,363.486786 336.186035,363.012146 
	C336.961792,362.540558 337.498474,362.259705 338.336060,361.962585 
	C339.064758,361.580841 339.492584,361.215393 339.944824,360.891235 
	C339.969299,360.932587 339.875519,360.911804 340.123291,360.832703 
	C340.560944,360.473877 340.750854,360.194153 340.933868,359.906738 
	C340.926971,359.899078 340.910187,359.873199 340.910187,359.873199 
M400.470642,377.450714 
	C401.578369,376.664459 402.686127,375.878204 403.793854,375.091980 
	C403.659729,374.617371 403.525574,374.142731 403.391449,373.668121 
	C401.830597,373.767120 400.269775,373.866119 398.708923,373.965088 
	C399.096039,375.054901 399.483185,376.144684 400.470642,377.450714 
z"/>
<path fill="#0184F8" opacity="1.000000" stroke="none" 
	d="
M348.787537,243.526779 
	C349.030762,240.883850 349.273987,238.240936 349.952148,235.446335 
	C350.533997,233.690506 350.680908,232.086349 350.827820,230.482193 
	C350.827820,230.482193 350.711914,230.235443 351.181152,229.976074 
	C353.768311,229.530594 356.067505,228.712463 357.975189,229.259537 
	C371.796753,233.223236 385.531372,237.488922 399.309937,241.604156 
	C406.756287,243.828140 414.275452,245.815628 421.684784,248.153687 
	C426.688507,249.732620 431.620453,251.587463 436.461761,253.612381 
	C438.985931,254.668152 441.244537,256.358765 443.623108,257.762604 
	C443.941528,257.357483 444.259918,256.952332 444.578339,256.547211 
	C445.346710,258.686890 446.115051,260.826599 446.883423,262.966309 
	C446.262665,266.708282 445.641907,270.450287 444.671021,274.355652 
	C439.080200,272.331024 433.958008,269.778778 428.575043,268.028259 
	C416.150940,263.987946 403.492126,260.654266 391.130585,256.441040 
	C377.884033,251.926224 364.853851,246.807816 350.728607,245.587601 
	C350.027496,245.527039 349.432129,244.241776 348.787537,243.526779 
z"/>
<path fill="#0279F9" opacity="1.000000" stroke="none" 
	d="
M447.018372,262.543365 
	C446.115051,260.826599 445.346710,258.686890 444.578339,256.547211 
	C444.259918,256.952332 443.941528,257.357483 443.623108,257.762604 
	C441.244537,256.358765 438.985931,254.668152 436.461761,253.612381 
	C431.620453,251.587463 426.688507,249.732620 421.684784,248.153687 
	C414.275452,245.815628 406.756287,243.828140 399.309937,241.604156 
	C385.531372,237.488922 371.796753,233.223236 357.975189,229.259537 
	C356.067505,228.712463 353.768311,229.530594 351.274597,229.876831 
	C352.955627,223.228439 355.012451,216.419922 357.606476,209.299301 
	C358.760803,208.988205 359.377960,208.989227 360.031372,209.341187 
	C362.868164,211.772842 365.384888,214.630356 368.526276,215.777847 
	C375.805450,218.436844 383.412628,220.183945 390.840240,222.453217 
	C408.542664,227.861725 426.210052,233.385010 443.920624,238.766327 
	C445.255066,239.171783 446.819733,238.819595 448.221649,238.819595 
	C448.857544,237.029800 449.391449,235.527145 449.925323,234.024506 
	C449.663788,237.779404 449.500275,241.544327 449.117828,245.286865 
	C448.543518,250.906281 447.815796,256.510010 447.018372,262.543365 
z"/>
<path fill="#02B1F7" opacity="1.000000" stroke="none" 
	d="
M430.375214,340.990753 
	C430.082214,334.582703 424.201294,334.571686 420.296478,333.198822 
	C410.060364,329.600067 399.555450,326.767792 389.166504,323.601135 
	C377.802216,320.137146 366.447784,316.640717 355.218903,313.198303 
	C353.957916,323.412994 352.718506,333.452942 351.165833,343.250305 
	C351.172729,335.455597 351.492889,327.903534 351.813049,320.351440 
	C351.566956,315.502533 351.320862,310.653656 351.388489,305.060791 
	C351.798645,301.544434 351.895050,298.772034 352.429108,295.999878 
	C355.635895,296.391357 358.499695,296.457214 361.157501,297.230865 
	C372.083618,300.411194 383.086914,303.413391 393.798370,307.222076 
	C407.376923,312.050262 422.063629,313.757263 434.599915,321.570831 
	C435.071442,321.864685 436.120819,321.231506 436.900879,321.030365 
	C434.828369,327.620300 432.755829,334.210236 430.375214,340.990753 
z"/>
<path fill="#018FF8" opacity="1.000000" stroke="none" 
	d="
M348.542908,243.904541 
	C349.432129,244.241776 350.027496,245.527039 350.728607,245.587601 
	C364.853851,246.807816 377.884033,251.926224 391.130585,256.441040 
	C403.492126,260.654266 416.150940,263.987946 428.575043,268.028259 
	C433.958008,269.778778 439.080200,272.331024 444.577271,274.736511 
	C444.472595,278.853149 444.111511,282.752380 443.008057,286.788940 
	C439.817902,286.559174 437.259766,286.528992 434.940399,285.769531 
	C421.399200,281.335510 407.948578,276.624359 394.399872,272.214111 
	C381.638092,268.060028 368.817841,264.078674 355.958801,260.237244 
	C353.914093,259.626434 351.530029,260.151642 348.989929,260.151642 
	C348.989929,263.980499 348.989929,266.968964 348.772217,269.968903 
	C348.554474,269.980347 348.118652,269.994446 348.118652,269.994446 
	C348.178528,261.423737 348.238403,252.853027 348.542908,243.904541 
z"/>
<path fill="#0265F9" opacity="1.000000" stroke="none" 
	d="
M452.792572,212.938263 
	C452.112366,218.205643 451.432190,223.473038 450.386475,228.528381 
	C448.998291,227.156540 448.190369,225.382294 446.917725,224.937408 
	C439.148804,222.221603 431.277557,219.797638 423.434082,217.296188 
	C416.994843,215.242615 410.581329,213.097809 404.093658,211.209091 
	C396.384216,208.964722 388.566986,207.087418 380.873138,204.793839 
	C374.786652,202.979431 368.815979,200.776611 362.793884,198.746277 
	C365.974518,193.908737 369.155151,189.071182 373.011658,184.109589 
	C375.113983,184.968460 376.866913,185.694199 377.891022,186.994110 
	C379.454895,188.979202 380.721436,190.648819 383.614868,189.349335 
	C384.350372,189.019012 385.528564,189.466476 386.436737,189.761642 
	C393.524353,192.065079 400.565704,194.514633 407.678497,196.735947 
	C421.126373,200.935623 434.637939,204.933411 448.052094,209.236237 
	C449.843750,209.810928 451.222565,211.672577 452.792572,212.938263 
z"/>
<path fill="#02B6F7" opacity="1.000000" stroke="none" 
	d="
M245.898087,317.160919 
	C244.917526,315.351807 243.936966,313.542694 243.186646,311.214478 
	C242.955826,310.131836 242.494766,309.568359 242.033707,309.004852 
	C242.033707,309.004852 241.788376,308.838409 241.855988,308.303558 
	C241.343811,306.838104 240.764038,305.907471 240.184250,304.976868 
	C240.184250,304.976868 240.010956,304.929535 240.017303,304.454651 
	C240.945526,301.883606 241.421814,299.392303 242.868195,297.761292 
	C248.443207,291.474396 254.458817,285.579498 260.068909,279.322174 
	C269.753204,268.520569 279.273010,257.571106 288.823395,246.650085 
	C290.637970,244.575104 291.915558,241.394485 294.133392,240.556366 
	C295.382751,240.084229 298.046722,243.355499 300.073456,244.940430 
	C300.073456,244.940430 300.029327,245.000549 300.046936,245.271210 
	C300.366455,246.024658 300.668365,246.507477 300.970306,246.990280 
	C300.970306,246.990280 301.205536,247.177567 301.195740,247.623413 
	C301.434845,248.378326 301.683746,248.687393 301.932678,248.996460 
	C301.932678,248.996460 302.005066,249.029419 302.003540,249.398117 
	C302.378052,250.497360 302.754089,251.227921 303.130096,251.958466 
	C303.130096,251.958466 303.041046,251.976486 303.036530,252.342636 
	C302.420532,254.290070 302.192322,256.212097 301.137207,257.398956 
	C292.355225,267.277344 283.667389,277.259674 274.464661,286.738312 
	C264.769714,296.723938 257.300201,308.793884 245.898087,317.160919 
z"/>
<path fill="#0259FA" opacity="1.000000" stroke="none" 
	d="
M452.918335,212.502716 
	C451.222565,211.672577 449.843750,209.810928 448.052094,209.236237 
	C434.637939,204.933411 421.126373,200.935623 407.678497,196.735947 
	C400.565704,194.514633 393.524353,192.065079 386.436737,189.761642 
	C385.528564,189.466476 384.350372,189.019012 383.614868,189.349335 
	C380.721436,190.648819 379.454895,188.979202 377.891022,186.994110 
	C376.866913,185.694199 375.113983,184.968460 373.314209,183.960052 
	C376.852539,179.560242 380.764160,175.185928 385.320099,170.896179 
	C391.134613,173.504257 396.171295,176.059433 401.862274,177.656845 
	C417.582794,182.069550 433.056610,187.360611 448.632172,192.291031 
	C450.793854,192.975296 452.979309,193.584396 455.153778,194.228302 
	C454.450531,200.174591 453.747314,206.120865 452.918335,212.502716 
z"/>
<path fill="#016FF9" opacity="1.000000" stroke="none" 
	d="
M362.805481,198.758972 
	C368.815979,200.776611 374.786652,202.979431 380.873138,204.793839 
	C388.566986,207.087418 396.384216,208.964722 404.093658,211.209091 
	C410.581329,213.097809 416.994843,215.242615 423.434082,217.296188 
	C431.277557,219.797638 439.148804,222.221603 446.917725,224.937408 
	C448.190369,225.382294 448.998291,227.156540 450.039124,228.724335 
	C450.038055,230.491852 450.018890,231.851379 449.962524,233.617706 
	C449.391449,235.527145 448.857544,237.029800 448.221649,238.819595 
	C446.819733,238.819595 445.255066,239.171783 443.920624,238.766327 
	C426.210052,233.385010 408.542664,227.861725 390.840240,222.453217 
	C383.412628,220.183945 375.805450,218.436844 368.526276,215.777847 
	C365.384888,214.630356 362.868164,211.772842 360.032715,208.950882 
	C360.934753,205.074188 361.871704,201.938766 362.808655,198.803360 
	C362.808655,198.803360 362.817139,198.771683 362.805481,198.758972 
z"/>
<path fill="#0105FB" opacity="1.000000" stroke="none" 
	d="
M351.501587,320.231812 
	C351.492889,327.903534 351.172729,335.455597 350.845123,343.426880 
	C350.837646,343.846100 350.864349,343.887634 350.620209,344.109985 
	C350.175232,345.200043 349.974396,346.067780 349.773560,346.935486 
	C346.911102,351.047028 344.048676,355.158539 341.048218,359.571655 
	C340.910187,359.873199 340.926971,359.899078 340.676208,359.974854 
	C340.242157,360.337708 340.058838,360.624756 339.875549,360.911804 
	C339.875519,360.911804 339.969299,360.932587 339.648438,360.908661 
	C338.896790,361.249451 338.465973,361.614166 338.035156,361.978882 
	C337.498474,362.259705 336.961792,362.540558 335.951874,363.026581 
	C335.152954,363.360260 334.967682,363.598236 334.922882,363.945679 
	C334.922882,363.945679 334.992950,363.987213 334.663147,363.960815 
	C333.816376,364.255707 333.299408,364.576996 332.782410,364.898285 
	C332.014069,365.151733 331.245697,365.405182 329.924377,365.832733 
	C328.857727,366.310394 328.344086,366.613983 327.830414,366.917572 
	C327.830414,366.917572 327.373230,366.917816 326.871521,366.990295 
	C325.881470,367.346710 325.393188,367.630676 324.904877,367.914612 
	C324.904877,367.914612 324.999817,367.941803 324.727539,367.891479 
	C324.455292,367.841125 324.010986,368.025787 324.010986,368.025787 
	C323.836823,368.015320 323.662689,368.004822 322.953003,368.028412 
	C321.921783,368.317963 321.426086,368.573425 320.930389,368.828888 
	C320.480042,368.871674 320.029694,368.914490 318.881744,369.013794 
	C317.173309,369.077362 316.162506,369.084442 314.762512,369.055847 
	C312.912415,369.284393 311.451447,369.548615 309.654968,369.908173 
	C308.458252,370.295593 307.597015,370.587677 306.735809,370.879730 
	C305.433075,370.852356 304.130371,370.824951 302.435486,370.558044 
	C302.043365,370.318512 302.012207,369.965332 302.013306,369.596924 
	C302.737061,367.600006 303.110535,365.662689 304.235840,364.390320 
	C317.017120,349.938629 329.930176,335.603638 342.745911,321.182220 
	C343.748596,320.053894 344.286011,318.512115 345.258240,317.122040 
	C345.476837,317.081604 345.912598,316.993347 345.912598,316.993347 
	C345.912598,316.993347 346.016937,316.976776 346.127991,317.232758 
	C346.436768,317.743713 346.696381,317.885620 347.017792,317.914490 
	C348.408569,318.647034 349.799347,319.379578 351.501587,320.231812 
z"/>
<path fill="#0283F8" opacity="1.000000" stroke="none" 
	d="
M274.144012,191.002228 
	C276.423645,195.085617 278.703247,199.168991 280.724335,203.641891 
	C276.185760,208.348938 271.767914,212.539429 267.650452,217.006760 
	C252.588211,233.348740 237.626022,249.782928 222.626160,266.182373 
	C221.062271,263.099304 219.498383,260.016266 217.946228,256.176575 
	C218.887985,253.198853 219.395294,250.640488 220.839890,248.830002 
	C223.487732,245.511566 226.802216,242.735580 229.635849,239.552765 
	C235.891678,232.526031 241.983337,225.353378 248.213852,218.303772 
	C254.012772,211.742462 259.828461,205.192444 265.791351,198.781204 
	C268.375824,196.002426 271.347961,193.584229 274.144012,191.002228 
z"/>
<path fill="#0292F7" opacity="1.000000" stroke="none" 
	d="
M222.696564,266.546448 
	C237.626022,249.782928 252.588211,233.348740 267.650452,217.006760 
	C271.767914,212.539429 276.185760,208.348938 280.827484,203.986786 
	C283.452515,208.392731 285.715881,212.843323 287.751038,217.929993 
	C285.042877,219.673172 281.906219,220.164291 280.193024,221.990662 
	C271.293152,231.478516 262.664673,241.227112 254.122726,251.042496 
	C247.639893,258.491791 241.418961,266.169373 235.101303,273.761841 
	C233.116287,276.147400 231.195435,278.586304 229.245239,281.000793 
	C227.085800,276.304016 224.926376,271.607269 222.696564,266.546448 
z"/>
<path fill="#0274F9" opacity="1.000000" stroke="none" 
	d="
M274.079956,190.650452 
	C271.347961,193.584229 268.375824,196.002426 265.791351,198.781204 
	C259.828461,205.192444 254.012772,211.742462 248.213852,218.303772 
	C241.983337,225.353378 235.891678,232.526031 229.635849,239.552765 
	C226.802216,242.735580 223.487732,245.511566 220.839890,248.830002 
	C219.395294,250.640488 218.887985,253.198853 217.928680,255.823257 
	C215.295975,251.389648 212.692535,246.552704 210.336761,241.211838 
	C215.957901,234.434006 221.203552,228.044678 226.738022,221.916153 
	C233.281326,214.670471 240.108841,207.682312 246.745880,200.520172 
	C250.915421,196.020767 254.852707,191.302216 259.104919,186.884857 
	C261.526215,184.369522 264.371429,182.262238 267.025726,179.971207 
	C269.355774,183.413696 271.685852,186.856186 274.079956,190.650452 
z"/>
<path fill="#029FF7" opacity="1.000000" stroke="none" 
	d="
M348.026062,270.448822 
	C348.118652,269.994446 348.554474,269.980347 349.077179,270.207642 
	C353.020294,271.231781 356.502380,271.829071 359.849335,272.863647 
	C369.173004,275.745636 378.417725,278.882355 387.736023,281.782318 
	C399.582092,285.468964 411.470154,289.020599 423.339417,292.632690 
	C429.290558,294.443787 435.240112,296.259979 441.190399,298.073853 
	C440.372498,303.302368 439.554596,308.530914 438.381653,313.509247 
	C437.920929,311.656494 437.815247,310.053925 437.743927,308.972443 
	C434.519897,307.888458 431.911285,306.955750 429.268433,306.132904 
	C420.448975,303.386993 411.605988,300.716431 402.793365,297.948914 
	C393.682098,295.087585 384.588226,292.170013 375.500946,289.233093 
	C368.291840,286.903229 361.129486,284.425110 353.891449,282.190704 
	C351.758698,281.532349 349.656372,282.017334 350.051117,284.983063 
	C350.542694,288.675903 351.331177,292.329254 351.991455,295.999634 
	C351.895050,298.772034 351.798645,301.544434 351.455017,304.620911 
	C350.116364,293.584412 349.024933,282.243805 348.026062,270.448822 
z"/>
<path fill="#0198F7" opacity="1.000000" stroke="none" 
	d="
M441.504761,297.925293 
	C435.240112,296.259979 429.290558,294.443787 423.339417,292.632690 
	C411.470154,289.020599 399.582092,285.468964 387.736023,281.782318 
	C378.417725,278.882355 369.173004,275.745636 359.849335,272.863647 
	C356.502380,271.829071 353.020294,271.231781 349.294922,270.196167 
	C348.989929,266.968964 348.989929,263.980499 348.989929,260.151642 
	C351.530029,260.151642 353.914093,259.626434 355.958801,260.237244 
	C368.817841,264.078674 381.638092,268.060028 394.399872,272.214111 
	C407.948578,276.624359 421.399200,281.335510 434.940399,285.769531 
	C437.259766,286.528992 439.817902,286.559174 442.670105,286.986847 
	C443.049927,287.495941 443.025452,287.944397 442.666077,289.003876 
	C442.233917,291.433960 442.136627,293.253021 442.039307,295.072113 
	C441.965942,295.973633 441.892548,296.875183 441.504761,297.925293 
z"/>
<path fill="#01A7F7" opacity="1.000000" stroke="none" 
	d="
M352.429138,295.999878 
	C351.331177,292.329254 350.542694,288.675903 350.051117,284.983063 
	C349.656372,282.017334 351.758698,281.532349 353.891449,282.190704 
	C361.129486,284.425110 368.291840,286.903229 375.500946,289.233093 
	C384.588226,292.170013 393.682098,295.087585 402.793365,297.948914 
	C411.605988,300.716431 420.448975,303.386993 429.268433,306.132904 
	C431.911285,306.955750 434.519897,307.888458 437.743927,308.972443 
	C437.815247,310.053925 437.920929,311.656494 438.046631,313.697876 
	C437.799347,316.200592 437.532043,318.264557 437.082825,320.679443 
	C436.120819,321.231506 435.071442,321.864685 434.599915,321.570831 
	C422.063629,313.757263 407.376923,312.050262 393.798370,307.222076 
	C383.086914,303.413391 372.083618,300.411194 361.157501,297.230865 
	C358.499695,296.457214 355.635895,296.391357 352.429138,295.999878 
z"/>
<path fill="#0265F9" opacity="1.000000" stroke="none" 
	d="
M266.950562,179.638885 
	C264.371429,182.262238 261.526215,184.369522 259.104919,186.884857 
	C254.852707,191.302216 250.915421,196.020767 246.745880,200.520172 
	C240.108841,207.682312 233.281326,214.670471 226.738022,221.916153 
	C221.203552,228.044678 215.957901,234.434006 210.282806,240.862610 
	C207.734085,237.559509 205.486969,234.101715 203.462708,230.146393 
	C211.450119,220.609482 219.100174,211.468414 227.012344,202.560165 
	C234.475067,194.157928 241.985291,185.770691 249.954361,177.860153 
	C252.757385,175.077728 253.043304,169.094391 259.024506,169.919846 
	C259.024506,169.919846 259.045624,169.948349 259.144226,170.178192 
	C259.421051,170.682068 259.668854,170.858215 259.986237,170.936447 
	C262.282623,173.726486 264.578979,176.516525 266.950562,179.638885 
z"/>
<path fill="#0258F9" opacity="1.000000" stroke="none" 
	d="
M258.935974,169.598663 
	C253.043304,169.094391 252.757385,175.077728 249.954361,177.860153 
	C241.985291,185.770691 234.475067,194.157928 227.012344,202.560165 
	C219.100174,211.468414 211.450119,220.609482 203.394196,229.810532 
	C199.494568,225.532700 195.886337,221.093201 192.530487,216.322327 
	C194.977127,216.427521 197.171402,216.864090 197.973022,217.023590 
	C200.334396,214.445297 202.255005,212.375763 204.145782,210.279297 
	C216.113846,197.009247 228.280853,183.909012 239.889923,170.331802 
	C242.684296,167.063705 247.978180,163.953354 245.055557,157.938858 
	C249.652863,161.718384 254.250153,165.497925 258.935974,169.598663 
z"/>
<path fill="#024FFA" opacity="1.000000" stroke="none" 
	d="
M455.158875,194.185608 
	C452.979309,193.584396 450.793854,192.975296 448.632172,192.291031 
	C433.056610,187.360611 417.582794,182.069550 401.862274,177.656845 
	C396.171295,176.059433 391.134613,173.504257 385.616699,170.774811 
	C389.972076,166.481750 394.675140,162.394623 399.883728,158.426758 
	C403.414062,160.792999 406.125000,163.968079 409.521271,165.116516 
	C420.633545,168.874146 431.960114,172.021820 443.277863,175.136612 
	C447.999481,176.436066 452.906464,177.062027 457.729126,177.994232 
	C457.726654,178.551498 457.724182,179.108780 457.219727,180.023102 
	C456.739746,181.897293 456.761780,183.414444 456.783813,184.931595 
	C456.592834,186.088531 456.401855,187.245468 455.789612,188.984436 
	C455.280884,191.070801 455.193420,192.575134 455.105927,194.079483 
	C455.105927,194.079483 455.163971,194.142929 455.158875,194.185608 
z"/>
<path fill="#029FF7" opacity="1.000000" stroke="none" 
	d="
M229.272125,281.349762 
	C231.195435,278.586304 233.116287,276.147400 235.101303,273.761841 
	C241.418961,266.169373 247.639893,258.491791 254.122726,251.042496 
	C262.664673,241.227112 271.293152,231.478516 280.193024,221.990662 
	C281.906219,220.164291 285.042877,219.673172 287.759033,218.294678 
	C289.951172,222.154861 291.907104,226.286453 293.686584,230.992035 
	C292.533844,230.779221 291.557526,229.992416 290.172150,228.875977 
	C282.221619,237.314163 274.346619,245.460297 266.716522,253.829666 
	C259.054047,262.234558 251.342499,270.627014 244.236832,279.493225 
	C240.809860,283.769257 234.430817,286.203339 234.775177,293.131287 
	C232.949799,289.320435 231.124420,285.509583 229.272125,281.349762 
z"/>
<path fill="#02AAF7" opacity="1.000000" stroke="none" 
	d="
M234.839600,293.494232 
	C234.430817,286.203339 240.809860,283.769257 244.236832,279.493225 
	C251.342499,270.627014 259.054047,262.234558 266.716522,253.829666 
	C274.346619,245.460297 282.221619,237.314163 290.172150,228.875977 
	C291.557526,229.992416 292.533844,230.779221 293.716003,231.360031 
	C295.963593,235.503571 298.005371,239.853119 300.060303,244.571533 
	C298.046722,243.355499 295.382751,240.084229 294.133392,240.556366 
	C291.915558,241.394485 290.637970,244.575104 288.823395,246.650085 
	C279.273010,257.571106 269.753204,268.520569 260.068909,279.322174 
	C254.458817,285.579498 248.443207,291.474396 242.868195,297.761292 
	C241.421814,299.392303 240.945526,301.883606 240.047333,304.369995 
	C238.348694,301.125885 236.626358,297.491547 234.839600,293.494232 
z"/>
<path fill="#014AFA" opacity="1.000000" stroke="none" 
	d="
M244.872101,157.646973 
	C247.978180,163.953354 242.684296,167.063705 239.889923,170.331802 
	C228.280853,183.909012 216.113846,197.009247 204.145782,210.279297 
	C202.255005,212.375763 200.334396,214.445297 197.973022,217.023590 
	C197.171402,216.864090 194.977127,216.427521 192.416321,216.010544 
	C192.049789,216.030136 191.967468,216.019699 191.878601,215.776367 
	C191.618729,215.277634 191.383545,215.115051 191.084183,215.045258 
	C190.378342,214.442688 189.672485,213.840118 188.932938,212.532867 
	C189.738510,209.740967 190.089722,207.213730 191.504074,205.645020 
	C196.778549,199.794922 202.490463,194.342270 207.875259,188.587967 
	C218.309891,177.437271 228.634094,166.183243 239.004059,154.972046 
	C240.898911,155.766388 242.793762,156.560745 244.872101,157.646973 
z"/>
<path fill="#013FFA" opacity="1.000000" stroke="none" 
	d="
M238.851776,154.680130 
	C228.634094,166.183243 218.309891,177.437271 207.875259,188.587967 
	C202.490463,194.342270 196.778549,199.794922 191.504074,205.645020 
	C190.089722,207.213730 189.738510,209.740967 188.837463,212.265869 
	C188.597473,212.647263 188.419250,212.590988 188.017120,212.059769 
	C187.595001,211.303711 187.326599,211.132858 186.988007,211.072266 
	C184.411957,209.264862 181.835892,207.457458 179.355530,205.168732 
	C181.831329,202.347153 184.321350,200.107529 186.572250,197.649002 
	C195.597183,187.791702 204.624985,177.934784 213.489090,167.933578 
	C217.137848,163.816742 220.375473,159.335480 224.701309,153.884369 
	C219.566544,153.884369 215.672699,153.884369 211.778839,153.884369 
	C216.813950,153.540497 221.849167,153.198166 226.884125,152.852066 
	C229.006042,152.706192 231.127426,152.552353 233.634171,152.237732 
	C235.579361,152.844940 237.139420,153.616577 238.851776,154.680130 
z"/>
<path fill="#0245FA" opacity="1.000000" stroke="none" 
	d="
M457.857269,177.658157 
	C452.906464,177.062027 447.999481,176.436066 443.277863,175.136612 
	C431.960114,172.021820 420.633545,168.874146 409.521271,165.116516 
	C406.125000,163.968079 403.414062,160.792999 400.181396,158.272003 
	C400.364960,157.636581 400.756378,157.275177 401.781036,156.905457 
	C402.943420,156.297241 403.472565,155.697342 404.001709,155.097443 
	C404.001709,155.097443 404.240753,154.832321 404.697510,154.808136 
	C405.417999,154.526642 405.681702,154.269333 405.945404,154.012024 
	C405.945404,154.012009 405.961517,153.951843 406.192322,153.873322 
	C406.679657,153.645844 406.867859,153.435684 406.987732,153.164322 
	C406.987732,153.164322 407.061157,152.978287 407.420044,152.961990 
	C408.167236,152.610306 408.555542,152.274918 408.943817,151.939545 
	C409.199371,151.658600 409.454895,151.377655 410.278320,151.019714 
	C411.251831,150.597366 411.657410,150.252029 412.062988,149.906677 
	C412.451263,149.584335 412.839539,149.262009 413.797485,148.960831 
	C414.570496,148.992584 414.773804,149.003204 415.135803,149.316681 
	C419.734192,154.584808 425.709656,156.697372 431.860443,158.386627 
	C440.747101,160.827225 449.447937,164.453583 458.991852,163.417725 
	C458.659790,167.857559 458.337799,171.878418 458.015808,175.899261 
	C458.005646,176.373535 457.995514,176.847809 457.857269,177.658157 
z"/>
<path fill="#0607F5" opacity="1.000000" stroke="none" 
	d="
M119.008606,368.850677 
	C107.386284,375.641876 95.968697,382.821686 84.071030,389.090271 
	C75.882103,393.404846 67.044243,396.496582 58.455601,400.035828 
	C56.881462,400.684509 55.111309,400.857574 53.098785,401.328033 
	C55.995518,390.595032 58.705013,380.555786 61.663223,370.342163 
	C61.911938,370.167786 62.068886,370.302124 62.025497,370.700684 
	C61.990200,372.740082 61.998283,374.380890 62.004463,376.418793 
	C62.892857,377.754425 63.900513,379.589905 64.655075,379.491180 
	C71.312630,378.620026 77.917679,377.357635 84.553123,376.304657 
	C91.844032,375.147614 99.229408,374.441681 106.415909,372.834106 
	C109.801643,372.076721 112.818604,369.670746 116.378731,368.010437 
	C117.506836,368.014618 118.258888,368.020203 119.008743,368.231995 
	C119.006554,368.438232 119.008606,368.850677 119.008606,368.850677 
z"/>
<path fill="#0134FB" opacity="1.000000" stroke="none" 
	d="
M211.428070,153.872345 
	C215.672699,153.884369 219.566544,153.884369 224.701309,153.884369 
	C220.375473,159.335480 217.137848,163.816742 213.489090,167.933578 
	C204.624985,177.934784 195.597183,187.791702 186.572250,197.649002 
	C184.321350,200.107529 181.831329,202.347153 179.168640,204.891327 
	C176.901703,204.152420 174.917328,203.209595 172.516052,201.707123 
	C172.092941,196.422318 172.086761,191.697144 172.080566,186.971970 
	C172.133759,186.613571 172.186935,186.255173 172.415009,185.391266 
	C172.686417,184.269165 172.782928,183.652557 172.879456,183.035950 
	C172.952469,182.594330 173.025497,182.152710 173.324524,181.141861 
	C173.691116,179.716553 173.831696,178.860474 173.972260,178.004395 
	C173.972275,178.004395 174.011032,178.000000 174.224823,177.942780 
	C174.438614,177.885559 174.865280,177.750122 174.906586,178.198364 
	C174.702133,184.697098 172.591492,190.845139 175.372498,197.752777 
	C176.877670,195.079971 177.544434,193.177902 178.790695,191.799957 
	C186.674698,183.082779 194.897278,174.661743 202.538132,165.740448 
	C205.066055,162.788910 206.204269,158.647141 208.187622,154.945709 
	C208.667755,154.666870 208.862061,154.429581 208.980255,154.129990 
	C209.679260,154.040100 210.378281,153.950195 211.428070,153.872345 
z"/>
<path fill="#0731F4" opacity="1.000000" stroke="none" 
	d="
M458.232666,175.597076 
	C458.337799,171.878418 458.659790,167.857559 459.277466,163.149445 
	C460.290558,159.434021 461.314819,156.434799 461.604095,153.366302 
	C461.763580,151.674728 461.220398,148.940689 460.072449,148.281570 
	C456.337158,146.136826 452.250519,143.553680 448.164764,143.299515 
	C440.821014,142.842697 433.616699,138.454224 426.019592,142.023102 
	C425.959991,141.956940 425.841125,141.824341 425.841125,141.824341 
	C440.803589,134.656952 455.766083,127.489555 471.035522,120.175110 
	C466.647736,139.391251 462.548645,157.343063 458.232666,175.597076 
z"/>
<path fill="#0274F9" opacity="1.000000" stroke="none" 
	d="
M263.998413,347.887848 
	C261.919434,344.965851 259.840485,342.043854 258.106079,338.659515 
	C260.638153,336.626160 262.973480,335.219788 264.966248,333.431702 
	C266.543365,332.016510 267.606934,330.047058 269.057953,328.470520 
	C281.286926,315.183624 293.657593,302.025085 305.740417,288.607086 
	C309.168823,284.799805 311.790253,280.265869 314.781738,276.065186 
	C316.176849,278.457458 317.571960,280.849701 318.862793,283.907776 
	C316.919006,286.142578 314.876343,287.528442 313.271881,289.309143 
	C299.097778,305.039948 284.993927,320.834076 270.896088,336.633392 
	C269.720581,337.950806 268.925293,340.432831 267.636749,340.672607 
	C263.415375,341.458191 263.929779,344.229767 264.091827,347.290558 
	C264.054779,347.488678 263.998413,347.887848 263.998413,347.887848 
z"/>
<path fill="#0258F9" opacity="1.000000" stroke="none" 
	d="
M321.178253,287.696747 
	C323.388062,290.903107 325.597870,294.109467 327.449585,297.658142 
	C321.264008,298.310577 318.228302,302.829559 314.833160,306.506531 
	C305.174042,316.967499 295.710968,327.611298 286.267426,338.268799 
	C281.043030,344.164795 276.012360,350.232452 270.894379,356.222717 
	C268.981415,354.053864 267.068451,351.885010 265.466919,349.362671 
	C270.269806,349.326385 270.677917,345.050781 272.874786,342.757996 
	C278.078369,337.327240 283.563934,332.157043 288.607452,326.584595 
	C298.124939,316.068939 307.464264,305.389923 316.747955,294.666565 
	C318.530304,292.607819 319.716858,290.033325 321.178253,287.696747 
z"/>
<path fill="#0283F8" opacity="1.000000" stroke="none" 
	d="
M314.752258,275.728546 
	C311.790253,280.265869 309.168823,284.799805 305.740417,288.607086 
	C293.657593,302.025085 281.286926,315.183624 269.057953,328.470520 
	C267.606934,330.047058 266.543365,332.016510 264.966248,333.431702 
	C262.973480,335.219788 260.638153,336.626160 258.066650,338.319092 
	C257.682739,338.441010 257.697266,338.381317 257.690704,338.062897 
	C257.383392,337.528564 257.082611,337.312653 256.781860,337.096741 
	C255.829651,335.665619 254.877457,334.234467 253.936310,332.429352 
	C253.947342,332.055389 254.110275,331.917206 254.481934,331.944824 
	C256.677551,331.039673 258.946442,330.519287 260.254181,329.108154 
	C269.658569,318.960236 279.024750,308.767609 288.092224,298.319427 
	C296.099426,289.092957 306.166595,281.498077 311.116821,269.798065 
	C312.318817,271.662689 313.520782,273.527283 314.752258,275.728546 
z"/>
<path fill="#02AAF7" opacity="1.000000" stroke="none" 
	d="
M245.891205,317.482147 
	C257.300201,308.793884 264.769714,296.723938 274.464661,286.738312 
	C283.667389,277.259674 292.355225,267.277344 301.137207,257.398956 
	C302.192322,256.212097 302.420532,254.290070 303.060455,252.304016 
	C303.908173,253.416336 304.727448,254.933426 305.468140,256.883972 
	C305.322784,257.636108 305.455383,257.853577 305.787384,257.969818 
	C305.787384,257.969818 306.012177,258.403961 306.014587,259.037354 
	C305.244263,261.164398 304.711487,262.864594 303.644043,264.104584 
	C301.925812,266.100586 299.726959,267.677094 297.954346,269.633087 
	C289.320801,279.159851 280.757019,288.749878 272.177124,298.325195 
	C265.895599,305.335480 259.419464,312.187897 253.473007,319.472321 
	C251.552307,321.825134 250.085815,322.172791 247.699951,321.082855 
	C247.094727,319.989716 246.489517,318.896545 245.891205,317.482147 
z"/>
<path fill="#039CF7" opacity="1.000000" stroke="none" 
	d="
M247.780106,321.437531 
	C250.085815,322.172791 251.552307,321.825134 253.473007,319.472321 
	C259.419464,312.187897 265.895599,305.335480 272.177124,298.325195 
	C280.757019,288.749878 289.320801,279.159851 297.954346,269.633087 
	C299.726959,267.677094 301.925812,266.100586 303.644043,264.104584 
	C304.711487,262.864594 305.244263,261.164398 306.036377,259.280823 
	C307.392090,261.348633 308.728394,263.806396 309.670471,266.636658 
	C307.649994,268.704712 305.991150,270.370331 304.402496,272.100372 
	C289.574982,288.247620 274.652161,304.309937 260.035187,320.645752 
	C257.256775,323.750885 252.877136,326.500946 254.110275,331.917206 
	C254.110275,331.917206 253.947342,332.055389 253.855362,332.109985 
	C251.795685,328.707123 249.827972,325.249664 247.780106,321.437531 
z"/>
<path fill="#014AFA" opacity="1.000000" stroke="none" 
	d="
M271.006897,356.522217 
	C276.012360,350.232452 281.043030,344.164795 286.267426,338.268799 
	C295.710968,327.611298 305.174042,316.967499 314.833160,306.506531 
	C318.228302,302.829559 321.264008,298.310577 327.470306,297.996582 
	C328.831238,299.112579 329.813354,300.232483 330.471558,301.675110 
	C326.232849,301.354187 325.717773,304.863586 323.814697,306.910828 
	C308.998444,322.849335 293.966888,338.587677 279.152924,354.528290 
	C277.570404,356.231171 276.956482,358.834229 275.893250,361.019714 
	C274.301971,359.620392 272.710693,358.221069 271.006897,356.522217 
z"/>
<path fill="#033CFA" opacity="1.000000" stroke="none" 
	d="
M275.910400,361.044037 
	C276.956482,358.834229 277.570404,356.231171 279.152924,354.528290 
	C293.966888,338.587677 308.998444,322.849335 323.814697,306.910828 
	C325.717773,304.863586 326.232849,301.354187 330.542053,301.988831 
	C331.466370,302.504333 331.996338,303.028778 332.509583,303.963562 
	C332.731079,304.529816 332.969269,304.685699 333.207458,304.841583 
	C333.207458,304.841583 333.111145,304.990021 333.086792,305.186096 
	C333.048492,305.570984 333.034607,305.759827 332.673828,306.019592 
	C330.342712,308.188965 328.317688,310.250397 326.381073,312.391785 
	C313.978577,326.105438 301.618408,339.857391 289.189423,353.546906 
	C286.232544,356.803650 283.066589,359.870575 279.663879,363.101318 
	C279.127258,363.279694 278.923584,363.381561 278.719879,363.483459 
	C278.719879,363.483459 278.713989,363.408203 278.671204,363.084137 
	C278.103607,362.528778 277.578796,362.297516 277.054016,362.066223 
	C277.054016,362.066223 276.948029,362.072510 276.846497,361.811523 
	C276.556671,361.288605 276.302887,361.134735 275.983521,361.088867 
	C275.983521,361.088867 275.927612,361.068359 275.910400,361.044037 
z"/>
<path fill="#0265F9" opacity="1.000000" stroke="none" 
	d="
M321.148315,287.378540 
	C319.716858,290.033325 318.530304,292.607819 316.747955,294.666565 
	C307.464264,305.389923 298.124939,316.068939 288.607452,326.584595 
	C283.563934,332.157043 278.078369,337.327240 272.874786,342.757996 
	C270.677917,345.050781 270.269806,349.326385 265.389038,349.036865 
	C264.999725,349.064484 264.950012,349.036041 264.944489,348.731079 
	C264.668915,347.981567 264.398895,347.537018 264.128876,347.092438 
	C263.929779,344.229767 263.415375,341.458191 267.636749,340.672607 
	C268.925293,340.432831 269.720581,337.950806 270.896088,336.633392 
	C284.993927,320.834076 299.097778,305.039948 313.271881,289.309143 
	C314.876343,287.528442 316.919006,286.142578 318.903137,284.253601 
	C319.737976,284.975830 320.428192,286.018066 321.148315,287.378540 
z"/>
<path fill="#018FF8" opacity="1.000000" stroke="none" 
	d="
M254.481934,331.944824 
	C252.877136,326.500946 257.256775,323.750885 260.035187,320.645752 
	C274.652161,304.309937 289.574982,288.247620 304.402496,272.100372 
	C305.991150,270.370331 307.649994,268.704712 309.641113,267.001099 
	C310.388275,267.717773 310.770569,268.442535 311.134827,269.482666 
	C306.166595,281.498077 296.099426,289.092957 288.092224,298.319427 
	C279.024750,308.767609 269.658569,318.960236 260.254181,329.108154 
	C258.946442,330.519287 256.677551,331.039673 254.481934,331.944824 
z"/>
<path fill="#0113FC" opacity="1.000000" stroke="none" 
	d="
M345.039673,317.162476 
	C344.286011,318.512115 343.748596,320.053894 342.745911,321.182220 
	C329.930176,335.603638 317.017120,349.938629 304.235840,364.390320 
	C303.110535,365.662689 302.737061,367.600006 301.568237,369.607635 
	C298.750946,369.983032 296.379852,369.979309 294.009979,369.610962 
	C298.555328,363.449951 302.808258,357.393250 307.706390,351.913208 
	C316.871033,341.659760 326.498260,331.820679 335.720123,321.616760 
	C337.622192,319.512146 338.593689,316.566528 340.011597,313.719849 
	C340.041809,313.238708 340.054504,313.046265 340.067200,312.853851 
	C340.067200,312.853851 340.549194,312.972931 340.823792,313.394836 
	C341.763489,314.167847 342.428589,314.518921 343.093689,314.869995 
	C343.093689,314.870026 342.989471,314.961365 343.126190,315.220764 
	C343.855164,316.040955 344.447418,316.601715 345.039673,317.162476 
z"/>
<path fill="#0443F9" opacity="1.000000" stroke="none" 
	d="
M61.904945,370.064697 
	C62.724766,365.436554 63.551575,360.911438 64.664825,356.404358 
	C65.296753,356.956818 65.642250,357.491211 65.991470,358.418549 
	C66.887489,359.749512 67.917435,361.599030 68.651337,361.488190 
	C78.908882,359.939178 89.109779,358.020020 99.357117,356.397095 
	C111.636459,354.452393 123.956436,352.762695 136.227249,350.768311 
	C137.274628,350.598053 138.084625,348.967255 139.415710,348.011139 
	C140.921036,348.043427 142.015549,348.079498 143.110062,348.115601 
	C140.235336,351.212402 137.360626,354.309235 134.037415,357.444641 
	C133.420685,357.741821 133.252441,358.000397 133.084198,358.259003 
	C133.081223,358.614471 132.915497,358.860199 132.067856,359.005493 
	C131.357376,358.996216 131.166061,358.977631 130.894119,358.570068 
	C129.309616,357.787384 127.756477,356.927307 126.310310,357.080048 
	C119.748497,357.773102 113.199638,358.640564 106.677986,359.650970 
	C93.463089,361.698364 80.249680,363.772766 67.091675,366.146484 
	C65.548546,366.424866 64.357254,368.653534 62.759998,370.032104 
	C62.517128,370.086090 62.068886,370.302124 62.068886,370.302124 
	C62.068886,370.302124 61.911938,370.167786 61.904945,370.064697 
z"/>
<path fill="#0283F8" opacity="1.000000" stroke="none" 
	d="
M158.826920,329.002594 
	C157.182663,331.595795 155.538406,334.188965 153.331100,337.005463 
	C152.527634,337.509979 152.287216,337.791199 152.046799,338.072449 
	C152.046799,338.072449 151.989685,338.025269 151.762878,338.013855 
	C151.361710,337.998810 151.187363,337.995148 150.998688,337.595123 
	C150.106979,336.472809 149.147629,335.042847 148.365341,335.133911 
	C142.819962,335.779510 137.307831,336.717682 131.790833,337.598572 
	C120.592819,339.386688 109.355515,340.969330 98.214783,343.064178 
	C87.405403,345.096649 76.696732,347.664673 65.943832,349.997498 
	C66.289726,347.566223 66.635628,345.134979 67.340126,342.210876 
	C68.131393,341.480957 68.564064,341.243896 69.080551,341.391052 
	C70.982185,342.149048 72.886528,343.077972 74.604301,342.810181 
	C90.527786,340.327850 106.418541,337.635803 122.319939,335.011566 
	C134.488083,333.003387 146.657867,331.005219 158.826920,329.002594 
z"/>
<path fill="#039CF7" opacity="1.000000" stroke="none" 
	d="
M68.996719,341.006836 
	C68.564064,341.243896 68.131393,341.480957 67.475922,341.825012 
	C67.839249,337.899139 68.425392,333.866241 69.135895,329.450775 
	C69.499847,329.536377 69.739426,330.004547 69.989197,331.153442 
	C69.999397,333.387634 69.999397,334.941162 69.999397,336.282654 
	C78.367973,334.764465 85.926384,333.282837 93.523766,332.039154 
	C107.373093,329.772064 121.248276,327.663330 135.107346,325.455139 
	C144.393219,323.975586 153.669907,322.438507 162.984558,320.970856 
	C163.018402,321.014526 163.094849,321.094330 163.094849,321.094330 
	C162.285049,322.978821 161.475250,324.863342 160.248199,326.695862 
	C159.556030,326.439880 159.281128,326.235870 158.620331,326.027954 
	C155.480331,326.072601 152.664078,325.762390 149.981995,326.226898 
	C129.698898,329.739624 109.436646,333.374115 89.180206,337.038727 
	C82.433884,338.259216 75.723526,339.678467 68.996719,341.006836 
z"/>
<path fill="#018FF8" opacity="1.000000" stroke="none" 
	d="
M69.080551,341.391022 
	C75.723526,339.678467 82.433884,338.259216 89.180206,337.038727 
	C109.436646,333.374115 129.698898,329.739624 149.981995,326.226898 
	C152.664078,325.762390 155.480331,326.072601 158.622238,326.373047 
	C159.027084,327.182495 159.044128,327.642914 159.061172,328.103363 
	C159.061172,328.103363 159.020889,328.572998 158.923904,328.787781 
	C146.657867,331.005219 134.488083,333.003387 122.319939,335.011566 
	C106.418541,337.635803 90.527786,340.327850 74.604301,342.810181 
	C72.886528,343.077972 70.982185,342.149048 69.080551,341.391022 
z"/>
<path fill="#0274F9" opacity="1.000000" stroke="none" 
	d="
M65.786163,350.244324 
	C76.696732,347.664673 87.405403,345.096649 98.214783,343.064178 
	C109.355515,340.969330 120.592819,339.386688 131.790833,337.598572 
	C137.307831,336.717682 142.819962,335.779510 148.365341,335.133911 
	C149.147629,335.042847 150.106979,336.472809 150.995483,337.861755 
	C151.019257,338.701721 151.031952,338.878723 151.044632,339.055756 
	C151.044632,339.055756 151.060516,339.034241 150.615463,339.029266 
	C148.839661,339.026184 147.477066,338.839600 146.182968,339.058319 
	C127.807892,342.164337 109.461304,345.444061 91.065468,348.419952 
	C82.629639,349.784607 74.101440,350.578217 65.615135,351.630829 
	C65.619591,351.250946 65.624039,350.871063 65.786163,350.244324 
z"/>
<path fill="#0322FA" opacity="1.000000" stroke="none" 
	d="
M339.916504,312.535095 
	C340.054504,313.046265 340.041809,313.238708 339.635864,313.759186 
	C337.197571,314.999451 334.585571,315.392883 333.199280,316.907898 
	C324.051300,326.905396 315.173889,337.150269 306.194275,347.302124 
	C300.319733,353.943542 294.421631,360.564117 288.170441,367.603485 
	C290.147064,368.406586 292.077881,369.191071 294.008728,369.975555 
	C296.379852,369.979309 298.750946,369.983032 301.567139,369.976044 
	C302.012207,369.965332 302.043365,370.318512 302.049744,370.495056 
	C301.586487,370.786285 301.116852,370.901001 299.849365,371.027405 
	C296.074829,371.081940 293.098114,371.124817 290.121429,371.167725 
	C286.774261,369.030670 283.427124,366.893677 280.016388,364.419067 
	C279.952820,364.081451 280.156799,363.923706 280.577454,363.952454 
	C283.513672,363.555969 286.944794,364.025116 288.385742,362.550079 
	C294.483856,356.307770 299.902374,349.408661 305.735992,342.899078 
	C312.342865,335.526672 319.601532,328.681519 325.650116,320.887939 
	C329.036377,316.524811 335.500275,313.380859 333.952850,306.042145 
	C333.997742,305.998810 334.086426,305.910950 334.086426,305.910950 
	C335.979553,308.012726 337.872681,310.114532 339.916504,312.535095 
z"/>
<path fill="#0322FA" opacity="1.000000" stroke="none" 
	d="
M62.025497,370.700684 
	C62.068886,370.302124 62.517128,370.086090 63.126450,370.200836 
	C66.155304,370.377899 68.634712,370.812775 70.983559,370.435272 
	C79.240196,369.108246 87.447670,367.477997 95.681793,366.007538 
	C107.105118,363.967560 118.535675,361.968048 130.091995,360.100586 
	C130.220856,360.249969 130.492249,360.536407 130.492249,360.536407 
	C127.315193,363.022552 124.138123,365.508698 120.307396,368.017273 
	C119.439468,368.035095 119.225204,368.030457 119.010941,368.025818 
	C118.258888,368.020203 117.506836,368.014618 116.126930,367.725647 
	C114.379753,367.438019 113.228485,367.259796 112.146400,367.458466 
	C105.994942,368.587830 99.880852,369.931152 93.714790,370.968323 
	C83.160591,372.743622 72.577393,374.346466 62.006371,376.021729 
	C61.998283,374.380890 61.990200,372.740082 62.025497,370.700684 
z"/>
<path fill="#0265F9" opacity="1.000000" stroke="none" 
	d="
M65.625916,351.653717 
	C74.101440,350.578217 82.629639,349.784607 91.065468,348.419952 
	C109.461304,345.444061 127.807892,342.164337 146.182968,339.058319 
	C147.477066,338.839600 148.839661,339.026184 150.617310,339.045959 
	C150.941223,339.643555 150.818237,340.219452 150.177612,341.029907 
	C149.471115,341.565186 149.282227,341.865845 149.093338,342.166534 
	C149.093338,342.166534 149.077347,342.074707 148.862213,342.180603 
	C148.482788,342.605988 148.318512,342.925476 148.154236,343.244965 
	C148.154236,343.244965 148.111649,343.101288 147.725189,343.087646 
	C142.818146,343.360382 138.235413,343.277344 133.792419,344.024933 
	C128.007553,344.998291 122.384102,346.922699 116.602158,347.923370 
	C101.031174,350.618378 85.402306,352.977997 69.824249,355.634064 
	C67.325768,356.060059 65.903564,355.900513 65.900475,352.696747 
	C65.792152,352.149933 65.716103,351.938538 65.640045,351.727112 
	C65.640045,351.727112 65.636703,351.676605 65.625916,351.653717 
z"/>
<path fill="#0259FA" opacity="1.000000" stroke="none" 
	d="
M65.932747,353.032196 
	C65.903564,355.900513 67.325768,356.060059 69.824249,355.634064 
	C85.402306,352.977997 101.031174,350.618378 116.602158,347.923370 
	C122.384102,346.922699 128.007553,344.998291 133.792419,344.024933 
	C138.235413,343.277344 142.818146,343.360382 147.778198,343.140625 
	C147.066254,344.419678 145.914871,345.632141 144.210571,347.051117 
	C143.456161,347.552399 143.254684,347.847229 143.053223,348.142059 
	C143.053223,348.142059 143.056595,348.075623 143.083328,348.095612 
	C142.015549,348.079498 140.921036,348.043427 139.137527,347.717896 
	C136.651352,347.297791 134.797607,346.815552 133.066315,347.094208 
	C122.851349,348.738220 112.677040,350.633820 102.465645,352.301331 
	C90.318687,354.285004 78.148094,356.123962 65.987747,358.025635 
	C65.642250,357.491211 65.296753,356.956818 64.905472,356.094269 
	C64.902115,355.063721 64.944542,354.361328 65.288826,353.338562 
	C65.590675,353.018219 65.932747,353.032196 65.932747,353.032196 
z"/>
<path fill="#03BEF7" opacity="1.000000" stroke="none" 
	d="
M171.779022,187.222961 
	C172.086761,191.697144 172.092941,196.422318 172.203934,201.607071 
	C172.895691,210.755936 173.482635,219.445206 173.948700,228.568054 
	C173.218338,227.374893 172.273315,225.790283 172.062805,224.113464 
	C171.449173,219.225723 171.129181,214.301147 170.348557,209.195084 
	C170.000824,207.932602 169.998581,206.866043 169.995773,205.065948 
	C169.988922,203.887680 169.982651,203.442947 169.976379,202.998199 
	C170.476730,197.823441 170.977081,192.648697 171.779022,187.222961 
z"/>
<path fill="#02C3FA" opacity="1.000000" stroke="none" 
	d="
M84.410965,222.908813 
	C83.964600,222.068176 83.907837,221.137817 83.746124,219.744110 
	C84.725296,214.110367 85.809402,208.939987 87.057480,203.414017 
	C87.315735,205.619110 87.639854,208.198105 87.437675,210.735153 
	C87.247391,213.123077 86.518875,215.470505 85.995262,217.828674 
	C85.624542,219.498260 85.200706,221.156036 84.410965,222.908813 
z"/>
<path fill="#0265F9" opacity="1.000000" stroke="none" 
	d="
M362.506012,198.973907 
	C361.871704,201.938766 360.934753,205.074188 359.996460,208.599915 
	C359.377960,208.989227 358.760803,208.988205 357.835693,208.992310 
	C359.086304,205.713089 360.644836,202.428772 362.506012,198.973907 
z"/>
<path fill="#02BEF8" opacity="1.000000" stroke="none" 
	d="
M290.271851,371.455017 
	C293.098114,371.124817 296.074829,371.081940 299.493835,371.104736 
	C298.667297,371.849884 297.398499,372.529388 296.069763,373.533508 
	C294.147369,373.152863 292.284821,372.447571 290.271851,371.455017 
z"/>
<path fill="#0731F4" opacity="1.000000" stroke="none" 
	d="
M415.012634,148.013885 
	C417.106110,146.689728 419.199585,145.365585 421.671661,144.047729 
	C422.050293,144.054001 422.114960,144.125656 422.032837,144.470215 
	C419.675018,145.920670 417.399384,147.026535 415.096008,148.102722 
	C415.068268,148.073059 415.012634,148.013870 415.012634,148.013885 
z"/>
<path fill="#0279F9" opacity="1.000000" stroke="none" 
	d="
M350.567993,230.783569 
	C350.680908,232.086349 350.533997,233.690506 350.184479,235.134186 
	C350.090637,233.677475 350.199432,232.381210 350.567993,230.783569 
z"/>
<path fill="#02C3FA" opacity="1.000000" stroke="none" 
	d="
M92.643135,185.138107 
	C92.802277,185.929474 92.688301,186.911804 92.234993,187.912811 
	C92.053787,187.064026 92.211906,186.196548 92.643135,185.138107 
z"/>
<path fill="#018FF8" opacity="1.000000" stroke="none" 
	d="
M442.380280,294.857544 
	C442.136627,293.253021 442.233917,291.433960 442.585022,289.330994 
	C442.799622,290.912384 442.760437,292.777649 442.380280,294.857544 
z"/>
<path fill="#0731F4" opacity="1.000000" stroke="none" 
	d="
M422.018677,144.017517 
	C423.055695,143.292435 424.124359,142.603821 425.517090,141.869766 
	C425.841125,141.824341 425.959991,141.956940 425.928467,142.364990 
	C424.636292,143.223907 423.375610,143.674774 422.114960,144.125641 
	C422.114960,144.125656 422.050293,144.054001 422.018677,144.017517 
z"/>
<path fill="#0245FA" opacity="1.000000" stroke="none" 
	d="
M456.909241,184.544983 
	C456.761780,183.414444 456.739746,181.897293 457.046692,180.247345 
	C457.261993,181.462479 457.148315,182.810425 456.909241,184.544983 
z"/>
<path fill="#0259FA" opacity="1.000000" stroke="none" 
	d="
M455.349884,193.798279 
	C455.193420,192.575134 455.280884,191.070801 455.631592,189.303528 
	C455.794495,190.532745 455.694183,192.024902 455.349884,193.798279 
z"/>
<path fill="#02C3FA" opacity="1.000000" stroke="none" 
	d="
M99.002136,171.255463 
	C98.927650,171.857712 98.635323,172.660049 98.166008,173.237320 
	C98.254112,172.493347 98.519203,171.974442 99.002136,171.255463 
z"/>
<path fill="#02AAF7" opacity="1.000000" stroke="none" 
	d="
M240.196793,305.312134 
	C240.764038,305.907471 241.343811,306.838104 241.894058,308.160278 
	C241.312790,307.583740 240.761063,306.615570 240.196793,305.312134 
z"/>
<path fill="#0322FA" opacity="1.000000" stroke="none" 
	d="
M345.258240,317.122040 
	C344.447418,316.601715 343.855164,316.040955 343.183502,315.183197 
	C343.940918,315.413696 344.777771,315.941193 345.763611,316.731018 
	C345.912598,316.993347 345.476837,317.081604 345.258240,317.122040 
z"/>
<path fill="#02AAF7" opacity="1.000000" stroke="none" 
	d="
M242.024628,309.303101 
	C242.494766,309.568359 242.955826,310.131836 243.182953,310.863159 
	C242.637848,310.554443 242.326691,310.077881 242.024628,309.303101 
z"/>
<path fill="#02C3FA" opacity="1.000000" stroke="none" 
	d="
M96.623238,176.069260 
	C96.718002,176.578949 96.554710,177.246078 96.070892,177.912109 
	C95.955307,177.349579 96.160240,176.788147 96.623238,176.069260 
z"/>
<path fill="#039CF7" opacity="1.000000" stroke="none" 
	d="
M164.005280,317.030945 
	C164.187286,317.032501 164.369263,317.034027 164.823822,317.054016 
	C164.918533,317.927032 164.740662,318.781616 164.271118,319.812073 
	C163.979462,319.987946 163.926636,319.951050 163.950745,319.585999 
	C163.985001,318.490967 163.995148,317.760956 164.005280,317.030945 
z"/>
<path fill="#0322FA" opacity="1.000000" stroke="none" 
	d="
M343.006409,314.588562 
	C342.428589,314.518921 341.763489,314.167847 341.045227,313.507141 
	C341.634399,313.567352 342.276764,313.937225 343.006409,314.588562 
z"/>
<path fill="#0731F4" opacity="1.000000" stroke="none" 
	d="
M403.695038,155.117935 
	C403.472565,155.697342 402.943420,156.297241 402.078430,156.902710 
	C402.291168,156.318329 402.839783,155.728378 403.695038,155.117935 
z"/>
<path fill="#02AAF7" opacity="1.000000" stroke="none" 
	d="
M303.140991,251.632233 
	C302.754089,251.227921 302.378052,250.497360 301.986328,249.433975 
	C302.364380,249.836090 302.758148,250.571060 303.140991,251.632233 
z"/>
<path fill="#02C3FA" opacity="1.000000" stroke="none" 
	d="
M91.650604,188.118530 
	C91.780975,188.809769 91.632080,189.699554 91.197441,190.781738 
	C91.064903,190.088440 91.218117,189.202774 91.650604,188.118530 
z"/>
<path fill="#014AFA" opacity="1.000000" stroke="none" 
	d="
M277.155029,362.321045 
	C277.578796,362.297516 278.103607,362.528778 278.637360,363.067413 
	C278.182892,363.108459 277.719482,362.842163 277.155029,362.321045 
z"/>
<path fill="#0731F4" opacity="1.000000" stroke="none" 
	d="
M411.786530,149.937119 
	C411.657410,150.252029 411.251831,150.597366 410.576202,151.003616 
	C410.707458,150.698868 411.108765,150.333221 411.786530,149.937119 
z"/>
<path fill="#0283F8" opacity="1.000000" stroke="none" 
	d="
M159.303711,328.017334 
	C159.044128,327.642914 159.027084,327.182495 159.008118,326.376953 
	C159.281128,326.235870 159.556030,326.439880 159.954498,326.873901 
	C159.900803,327.379730 159.723511,327.655548 159.303711,328.017334 
z"/>
<path fill="#0731F4" opacity="1.000000" stroke="none" 
	d="
M408.680908,151.979080 
	C408.555542,152.274918 408.167236,152.610306 407.512817,152.999329 
	C407.637146,152.708191 408.027557,152.363403 408.680908,151.979080 
z"/>
<path fill="#0258F9" opacity="1.000000" stroke="none" 
	d="
M264.091827,347.290558 
	C264.398895,347.537018 264.668915,347.981567 264.938660,348.703064 
	C264.661041,348.788727 264.383728,348.597473 264.052399,348.147034 
	C263.998413,347.887848 264.054779,347.488678 264.091827,347.290558 
z"/>
<path fill="#0322FA" opacity="1.000000" stroke="none" 
	d="
M130.974747,358.959076 
	C131.166061,358.977631 131.357376,358.996216 131.835907,359.037537 
	C131.748871,359.468445 131.374619,359.876648 130.746307,360.410614 
	C130.492249,360.536407 130.220856,360.249969 130.214142,359.891968 
	C130.413269,359.275696 130.669037,359.084045 130.974747,358.959076 
z"/>
<path fill="#02AAF7" opacity="1.000000" stroke="none" 
	d="
M300.981384,246.689499 
	C300.668365,246.507477 300.366455,246.024658 300.062927,245.240997 
	C300.371735,245.422989 300.682098,245.905853 300.981384,246.689499 
z"/>
<path fill="#0274F9" opacity="1.000000" stroke="none" 
	d="
M65.900475,352.696747 
	C65.932747,353.032196 65.590675,353.018219 65.419769,353.008850 
	C65.113686,352.676331 65.116211,352.354340 65.448250,351.880310 
	C65.716103,351.938538 65.792152,352.149933 65.900475,352.696747 
z"/>
<path fill="#0322FA" opacity="1.000000" stroke="none" 
	d="
M333.020752,305.948639 
	C333.034607,305.759827 333.048492,305.570984 333.113647,305.101807 
	C333.438263,305.012451 333.711670,305.203491 334.035736,305.652740 
	C334.086426,305.910950 333.997742,305.998810 333.731445,306.006317 
	C333.465149,306.013824 333.020752,305.948639 333.020752,305.948639 
z"/>
<path fill="#0113FC" opacity="1.000000" stroke="none" 
	d="
M119.008743,368.232025 
	C119.225204,368.030457 119.439468,368.035095 119.973282,368.078156 
	C120.053566,368.403778 119.814293,368.690948 119.291809,368.914429 
	C119.008606,368.850677 119.006554,368.438232 119.008743,368.232025 
z"/>
<path fill="#0322FA" opacity="1.000000" stroke="none" 
	d="
M133.332458,358.170013 
	C133.252441,358.000397 133.420685,357.741821 133.740234,357.569031 
	C133.787933,357.796936 133.684326,357.938995 133.332458,358.170013 
z"/>
<path fill="#014AFA" opacity="1.000000" stroke="none" 
	d="
M276.023407,361.333771 
	C276.302887,361.134735 276.556671,361.288605 276.829590,361.761230 
	C276.540741,362.035370 276.257080,361.904297 276.023407,361.333771 
z"/>
<path fill="#014AFA" opacity="1.000000" stroke="none" 
	d="
M278.808624,363.686310 
	C278.923584,363.381561 279.127258,363.279694 279.689087,363.328552 
	C280.047241,363.479248 280.156799,363.923706 280.156799,363.923706 
	C280.156799,363.923706 279.952820,364.081451 279.832886,364.128845 
	C279.392609,364.217896 279.120758,364.122192 278.808624,363.686310 
z"/>
<path fill="#0322FA" opacity="1.000000" stroke="none" 
	d="
M333.152374,304.604156 
	C332.969269,304.685699 332.731079,304.529816 332.591156,304.236877 
	C332.689423,304.099854 333.097290,304.366730 333.152374,304.604156 
z"/>
<path fill="#0258F9" opacity="1.000000" stroke="none" 
	d="
M259.930786,170.699097 
	C259.668854,170.858215 259.421051,170.682068 259.155212,170.192139 
	C259.425262,169.991028 259.694519,170.152863 259.930786,170.699097 
z"/>
<path fill="#014AFA" opacity="1.000000" stroke="none" 
	d="
M187.052032,211.323441 
	C187.326599,211.132858 187.595001,211.303711 187.898102,211.805939 
	C187.707352,211.876236 187.411713,211.725433 187.052032,211.323441 
z"/>
<path fill="#0258F9" opacity="1.000000" stroke="none" 
	d="
M191.123322,215.278015 
	C191.383545,215.115051 191.618729,215.277634 191.871155,215.735550 
	C191.596939,215.966156 191.333572,215.823715 191.123322,215.278015 
z"/>
<path fill="#0731F4" opacity="1.000000" stroke="none" 
	d="
M405.661560,154.055923 
	C405.681702,154.269333 405.417999,154.526642 404.873840,154.835999 
	C404.854858,154.625290 405.116272,154.362564 405.661560,154.055923 
z"/>
<path fill="#0731F4" opacity="1.000000" stroke="none" 
	d="
M406.750183,153.168808 
	C406.867859,153.435684 406.679657,153.645844 406.223450,153.871826 
	C406.045105,153.601013 406.208069,153.342499 406.750183,153.168808 
z"/>
<path fill="#02AAF7" opacity="1.000000" stroke="none" 
	d="
M301.929321,248.681427 
	C301.683746,248.687393 301.434845,248.378326 301.143127,247.764252 
	C301.375580,247.761642 301.650757,248.064011 301.929321,248.681427 
z"/>
<path fill="#039CF7" opacity="1.000000" stroke="none" 
	d="
M305.825928,257.733643 
	C305.455383,257.853577 305.322784,257.636108 305.489075,257.211914 
	C305.588562,257.106384 305.864441,257.497467 305.825928,257.733643 
z"/>
<path fill="#0731F4" opacity="1.000000" stroke="none" 
	d="
M414.977112,149.013809 
	C414.773804,149.003204 414.570496,148.992584 414.063049,148.944321 
	C413.988342,148.621155 414.217773,148.335648 414.729919,148.031998 
	C415.012634,148.013870 415.068268,148.073059 415.052368,148.321640 
	C415.036438,148.570221 414.977112,149.013809 414.977112,149.013809 
z"/>
<path fill="#0443F9" opacity="1.000000" stroke="none" 
	d="
M143.319794,348.060181 
	C143.254684,347.847229 143.456161,347.552399 143.912613,347.159546 
	C143.973846,347.367126 143.780121,347.672699 143.319794,348.060181 
z"/>
<path fill="#02AAF7" opacity="1.000000" stroke="none" 
	d="
M165.313828,317.021637 
	C165.218491,316.807526 165.387939,316.524445 165.783737,316.131622 
	C165.866272,316.332123 165.722443,316.642395 165.313828,317.021637 
z"/>
<path fill="#0113FC" opacity="1.000000" stroke="none" 
	d="
M346.956909,317.675323 
	C346.696381,317.885620 346.436768,317.743713 346.140686,317.284027 
	C346.415497,316.986450 346.700073,317.105408 346.956909,317.675323 
z"/>
<path fill="#039CF7" opacity="1.000000" stroke="none" 
	d="
M164.004395,320.008362 
	C163.885971,320.331299 163.742599,320.633881 163.347046,321.015381 
	C163.094849,321.094330 163.018402,321.014526 163.101547,320.766357 
	C163.380386,320.261627 163.627701,320.072571 163.926636,319.951050 
	C163.926636,319.951050 163.979462,319.987946 164.004395,320.008362 
z"/>
<path fill="#0274F9" opacity="1.000000" stroke="none" 
	d="
M152.324142,338.002625 
	C152.287216,337.791199 152.527634,337.509979 153.044968,337.161896 
	C153.081741,337.374298 152.841614,337.653534 152.324142,338.002625 
z"/>
<path fill="#0274F9" opacity="1.000000" stroke="none" 
	d="
M256.830200,337.379517 
	C257.082611,337.312653 257.383392,337.528564 257.703674,338.035065 
	C257.441650,338.104523 257.160126,337.883392 256.830200,337.379517 
z"/>
<path fill="#0265F9" opacity="1.000000" stroke="none" 
	d="
M151.301041,338.992279 
	C151.031952,338.878723 151.019257,338.701721 151.009796,338.258118 
	C151.187363,337.995148 151.361710,337.998810 151.797638,338.025818 
	C151.891953,338.342407 151.724701,338.635590 151.301041,338.992279 
z"/>
<path fill="#0259FA" opacity="1.000000" stroke="none" 
	d="
M149.363403,342.092407 
	C149.282227,341.865845 149.471115,341.565186 149.915527,341.170685 
	C149.991837,341.390656 149.812653,341.704468 149.363403,342.092407 
z"/>
<path fill="#0259FA" opacity="1.000000" stroke="none" 
	d="
M148.422577,343.160645 
	C148.318512,342.925476 148.482788,342.605988 148.907959,342.189453 
	C149.009552,342.420349 148.850250,342.748322 148.422577,343.160645 
z"/>
<path fill="#02B1F7" opacity="1.000000" stroke="none" 
	d="
M429.322205,343.135864 
	C429.199738,342.952026 429.319092,342.638794 429.643372,342.173706 
	C429.753540,342.350067 429.658752,342.678284 429.322205,343.135864 
z"/>
<path fill="#02B1F7" opacity="1.000000" stroke="none" 
	d="
M428.354889,346.221832 
	C428.212799,346.031158 428.312225,345.699890 428.613983,345.200867 
	C428.742981,345.382507 428.669678,345.731873 428.354889,346.221832 
z"/>
<path fill="#012AFB" opacity="1.000000" stroke="none" 
	d="
M207.977890,155.049561 
	C206.204269,158.647141 205.066055,162.788910 202.538132,165.740448 
	C194.897278,174.661743 186.674698,183.082779 178.790695,191.799957 
	C177.544434,193.177902 176.877670,195.079971 175.372498,197.752777 
	C172.591492,190.845139 174.702133,184.697098 174.928436,177.853546 
	C175.273071,175.711945 175.637146,174.363434 176.001221,173.014908 
	C178.242065,170.199722 180.482910,167.384552 183.100601,164.187714 
	C183.772644,163.626450 183.957825,163.367966 184.032944,163.030640 
	C184.032944,163.030640 183.999390,163.000656 184.264923,162.949524 
	C184.715363,162.618942 184.900269,162.339478 185.085175,162.060028 
	C185.085190,162.060028 185.014267,162.003983 185.303680,161.967468 
	C185.847000,161.661560 186.100922,161.392151 186.354843,161.122757 
	C186.354843,161.122757 186.710297,161.112885 187.117065,160.969604 
	C187.760178,160.580627 187.996521,160.334946 188.232864,160.089249 
	C190.166702,159.359818 192.100555,158.630386 194.786835,157.930023 
	C197.365341,157.285202 199.191406,156.611298 201.017487,155.937393 
	C201.017487,155.937393 201.320374,155.794342 201.862732,155.867188 
	C203.264893,155.617508 204.124695,155.294952 204.984482,154.972397 
	C204.984482,154.972397 204.967072,154.980392 205.342224,154.996094 
	C206.470886,155.024399 207.224396,155.036972 207.977890,155.049561 
z"/>
<path fill="#0134FB" opacity="1.000000" stroke="none" 
	d="
M200.637314,155.933380 
	C199.191406,156.611298 197.365341,157.285202 195.136017,157.920319 
	C196.574219,157.230820 198.415680,156.580093 200.637314,155.933380 
z"/>
<path fill="#02C3FA" opacity="1.000000" stroke="none" 
	d="
M175.632523,173.079285 
	C175.637146,174.363434 175.273071,175.711945 174.887146,177.405304 
	C174.865280,177.750122 174.438614,177.885559 174.218277,177.924408 
	C174.419907,176.356735 174.841858,174.750198 175.632523,173.079285 
z"/>
<path fill="#02C3FA" opacity="1.000000" stroke="none" 
	d="
M173.646027,178.049896 
	C173.831696,178.860474 173.691116,179.716553 173.320572,180.805603 
	C173.167007,180.057526 173.243408,179.076462 173.646027,178.049896 
z"/>
<path fill="#02C3FA" opacity="1.000000" stroke="none" 
	d="
M169.680359,203.038452 
	C169.982651,203.442947 169.988922,203.887680 169.992554,204.666016 
	C169.474548,204.767303 168.959167,204.535004 168.443802,204.302704 
	C168.757309,203.894699 169.070831,203.486710 169.680359,203.038452 
z"/>
<path fill="#013FFA" opacity="1.000000" stroke="none" 
	d="
M208.187622,154.945709 
	C207.224396,155.036972 206.470886,155.024399 205.340881,154.984741 
	C206.064941,154.650635 207.165497,154.343628 208.623169,154.083298 
	C208.862061,154.429581 208.667755,154.666870 208.187622,154.945709 
z"/>
<path fill="#0134FB" opacity="1.000000" stroke="none" 
	d="
M204.628891,154.938660 
	C204.124695,155.294952 203.264893,155.617508 202.028259,155.892838 
	C202.525375,155.532074 203.399338,155.218506 204.628891,154.938660 
z"/>
<path fill="#02C3FA" opacity="1.000000" stroke="none" 
	d="
M172.639328,183.249313 
	C172.782928,183.652557 172.686417,184.269165 172.368591,185.122253 
	C172.231262,184.726730 172.315247,184.094696 172.639328,183.249313 
z"/>
<path fill="#02C3FA" opacity="1.000000" stroke="none" 
	d="
M186.067108,161.172028 
	C186.100922,161.392151 185.847000,161.661560 185.323364,162.008148 
	C185.295563,161.797318 185.537460,161.509308 186.067108,161.172028 
z"/>
<path fill="#02C3FA" opacity="1.000000" stroke="none" 
	d="
M184.847366,162.145889 
	C184.900269,162.339478 184.715363,162.618942 184.280380,162.966644 
	C184.223404,162.767166 184.416473,162.499451 184.847366,162.145889 
z"/>
<path fill="#02C3FA" opacity="1.000000" stroke="none" 
	d="
M183.808792,163.119385 
	C183.957825,163.367966 183.772644,163.626450 183.247742,163.886078 
	C183.113571,163.643677 183.302444,163.391022 183.808792,163.119385 
z"/>
<path fill="#02C3FA" opacity="1.000000" stroke="none" 
	d="
M91.448601,192.532822 
	C91.414894,192.476654 91.482307,192.588989 91.448601,192.532822 
z"/>
<path fill="#02C3FA" opacity="1.000000" stroke="none" 
	d="
M187.976044,160.141174 
	C187.996521,160.334946 187.760178,160.580627 187.271027,160.880707 
	C187.251907,160.687744 187.485565,160.440414 187.976044,160.141174 
z"/>
<path fill="#02AAF7" opacity="1.000000" stroke="none" 
	d="
M163.950745,319.585999 
	C163.627701,320.072571 163.380386,320.261627 163.067703,320.722717 
	C153.669907,322.438507 144.393219,323.975586 135.107346,325.455139 
	C121.248276,327.663330 107.373093,329.772064 93.523766,332.039154 
	C85.926384,333.282837 78.367973,334.764465 69.999397,336.282654 
	C69.999397,334.941162 69.999397,333.387634 70.008469,331.426208 
	C83.896545,328.889893 97.770615,326.728668 111.655807,324.641449 
	C128.801727,322.064087 145.956909,319.548187 163.556686,317.018311 
	C163.995148,317.760956 163.985001,318.490967 163.950745,319.585999 
z"/>
<path fill="#02B1F7" opacity="1.000000" stroke="none" 
	d="
M350.087677,346.774048 
	C349.974396,346.067780 350.175232,345.200043 350.639893,344.124756 
	C350.736420,344.815674 350.569092,345.714172 350.087677,346.774048 
z"/>
<path fill="#02BEF8" opacity="1.000000" stroke="none" 
	d="
M400.170471,377.342590 
	C399.483185,376.144684 399.096039,375.054901 398.708923,373.965088 
	C400.269775,373.866119 401.830597,373.767120 403.391449,373.668121 
	C403.525574,374.142731 403.659729,374.617371 403.793854,375.091980 
	C402.686127,375.878204 401.578369,376.664459 400.170471,377.342590 
z"/>
<path fill="#0113FC" opacity="1.000000" stroke="none" 
	d="
M309.990509,369.812805 
	C311.451447,369.548615 312.912415,369.284393 314.694092,369.268433 
	C315.014832,369.516663 314.875793,369.941803 314.875793,369.941803 
	C313.814087,369.964264 312.752380,369.986755 311.072052,370.007721 
	C310.299133,369.941742 310.144836,369.877289 309.990509,369.812805 
z"/>
<path fill="#02BEF8" opacity="1.000000" stroke="none" 
	d="
M309.654968,369.908203 
	C310.144836,369.877289 310.299133,369.941742 310.684296,370.102783 
	C309.774445,370.452972 308.633698,370.706635 307.114380,370.920013 
	C307.597015,370.587677 308.458252,370.295593 309.654968,369.908203 
z"/>
<path fill="#02BEF8" opacity="1.000000" stroke="none" 
	d="
M315.241760,369.965179 
	C314.875793,369.941803 315.014832,369.516663 315.083252,369.304077 
	C316.162506,369.084442 317.173309,369.077362 318.559692,369.123383 
	C317.826050,369.447174 316.716888,369.717865 315.241760,369.965179 
z"/>
<path fill="#02BEF8" opacity="1.000000" stroke="none" 
	d="
M321.079895,369.078308 
	C321.426086,368.573425 321.921783,368.317963 322.705383,368.113098 
	C322.405334,368.551758 321.817352,368.939758 321.079895,369.078308 
z"/>
<path fill="#02BEF8" opacity="1.000000" stroke="none" 
	d="
M328.145264,366.930481 
	C328.344086,366.613983 328.857727,366.310394 329.679260,366.019623 
	C329.478149,366.336060 328.969116,366.639709 328.145264,366.930481 
z"/>
<path fill="#02BEF8" opacity="1.000000" stroke="none" 
	d="
M338.336060,361.962585 
	C338.465973,361.614166 338.896790,361.249451 339.623993,360.867310 
	C339.492584,361.215393 339.064758,361.580841 338.336060,361.962585 
z"/>
<path fill="#02BEF8" opacity="1.000000" stroke="none" 
	d="
M333.110199,364.913422 
	C333.299408,364.576996 333.816376,364.255707 334.646790,363.923523 
	C334.452820,364.251282 333.945404,364.589905 333.110199,364.913422 
z"/>
<path fill="#02BEF8" opacity="1.000000" stroke="none" 
	d="
M325.201630,367.929779 
	C325.393188,367.630676 325.881470,367.346710 326.665375,367.089081 
	C326.473419,367.391907 325.985901,367.668427 325.201630,367.929779 
z"/>
<path fill="#02BEF8" opacity="1.000000" stroke="none" 
	d="
M335.136688,363.888123 
	C334.967682,363.598236 335.152954,363.360260 335.712799,363.217346 
	C335.826721,363.486786 335.627899,363.695984 335.136688,363.888123 
z"/>
<path fill="#02BEF8" opacity="1.000000" stroke="none" 
	d="
M324.108490,368.190186 
	C324.010986,368.025787 324.455292,367.841125 324.695251,367.854126 
	C324.692139,368.029633 324.449066,368.192108 324.108490,368.190186 
z"/>
<path fill="#02BEF8" opacity="1.000000" stroke="none" 
	d="
M340.123291,360.832703 
	C340.058838,360.624756 340.242157,360.337708 340.683105,359.982544 
	C340.750854,360.194153 340.560944,360.473877 340.123291,360.832703 
z"/>
<path fill="#033CFA" opacity="1.000000" stroke="none" 
	d="
M415.135803,149.316681 
	C414.977112,149.013809 415.036438,148.570221 415.080078,148.351318 
	C417.399384,147.026535 419.675018,145.920670 422.032837,144.470215 
	C423.375610,143.674774 424.636292,143.223907 425.988037,142.431152 
	C433.616699,138.454224 440.821014,142.842697 448.164764,143.299515 
	C452.250519,143.553680 456.337158,146.136826 460.072449,148.281570 
	C461.220398,148.940689 461.763580,151.674728 461.604095,153.366302 
	C461.314819,156.434799 460.290558,159.434021 459.287506,162.730438 
	C449.447937,164.453583 440.747101,160.827225 431.860443,158.386627 
	C425.709656,156.697372 419.734192,154.584808 415.135803,149.316681 
z"/>
<path fill="#0113FC" opacity="1.000000" stroke="none" 
	d="
M62.004463,376.418793 
	C72.577393,374.346466 83.160591,372.743622 93.714790,370.968323 
	C99.880852,369.931152 105.994942,368.587830 112.146400,367.458466 
	C113.228485,367.259796 114.379753,367.438019 115.750877,367.727020 
	C112.818604,369.670746 109.801643,372.076721 106.415909,372.834106 
	C99.229408,374.441681 91.844032,375.147614 84.553123,376.304657 
	C77.917679,377.357635 71.312630,378.620026 64.655075,379.491180 
	C63.900513,379.589905 62.892857,377.754425 62.004463,376.418793 
z"/>
<path fill="#022EFB" opacity="1.000000" stroke="none" 
	d="
M280.577454,363.952454 
	C280.156799,363.923706 280.047241,363.479248 280.022034,363.252014 
	C283.066589,359.870575 286.232544,356.803650 289.189423,353.546906 
	C301.618408,339.857391 313.978577,326.105438 326.381073,312.391785 
	C328.317688,310.250397 330.342712,308.188965 332.673828,306.019592 
	C333.020752,305.948639 333.465149,306.013824 333.686554,306.049652 
	C335.500275,313.380859 329.036377,316.524811 325.650116,320.887939 
	C319.601532,328.681519 312.342865,335.526672 305.735992,342.899078 
	C299.902374,349.408661 294.483856,356.307770 288.385742,362.550079 
	C286.944794,364.025116 283.513672,363.555969 280.577454,363.952454 
z"/>
<path fill="#011DFE" opacity="1.000000" stroke="none" 
	d="
M294.009979,369.610962 
	C292.077881,369.191071 290.147064,368.406586 288.170441,367.603485 
	C294.421631,360.564117 300.319733,353.943542 306.194275,347.302124 
	C315.173889,337.150269 324.051300,326.905396 333.199280,316.907898 
	C334.585571,315.392883 337.197571,314.999451 339.618347,314.047913 
	C338.593689,316.566528 337.622192,319.512146 335.720123,321.616760 
	C326.498260,331.820679 316.871033,341.659760 307.706390,351.913208 
	C302.808258,357.393250 298.555328,363.449951 294.009979,369.610962 
z"/>
<path fill="#022EFB" opacity="1.000000" stroke="none" 
	d="
M130.894119,358.570068 
	C130.669037,359.084045 130.413269,359.275696 130.085281,359.742584 
	C118.535675,361.968048 107.105118,363.967560 95.681793,366.007538 
	C87.447670,367.477997 79.240196,369.108246 70.983559,370.435272 
	C68.634712,370.812775 66.155304,370.377899 63.369316,370.146851 
	C64.357254,368.653534 65.548546,366.424866 67.091675,366.146484 
	C80.249680,363.772766 93.463089,361.698364 106.677986,359.650970 
	C113.199638,358.640564 119.748497,357.773102 126.310310,357.080048 
	C127.756477,356.927307 129.309616,357.787384 130.894119,358.570068 
z"/>
<path fill="#024FFA" opacity="1.000000" stroke="none" 
	d="
M65.991470,358.418549 
	C78.148094,356.123962 90.318687,354.285004 102.465645,352.301331 
	C112.677040,350.633820 122.851349,348.738220 133.066315,347.094208 
	C134.797607,346.815552 136.651352,347.297791 138.726715,347.721741 
	C138.084625,348.967255 137.274628,350.598053 136.227249,350.768311 
	C123.956436,352.762695 111.636459,354.452393 99.357117,356.397095 
	C89.109779,358.020020 78.908882,359.939178 68.651337,361.488190 
	C67.917435,361.599030 66.887489,359.749512 65.991470,358.418549 
z"/>
  </g>
</svg>
